# Blender 3.1.0
# www.blender.org
mtllib sphereLow.mtl
o sphere
v 0.240824 1.041809 -0.005491
v 0.726448 0.603485 -0.601404
v 0.665444 0.680374 0.561221
v -0.762085 0.749931 -0.154169
v -0.132747 0.774626 -0.712795
v 1.006020 0.389991 0.001047
v -0.037688 0.644953 0.904803
v -0.756183 -0.000000 0.756183
v -0.757188 0.005762 -0.754342
v 1.046545 -0.264493 0.003651
v 0.280016 -0.370383 1.005096
v -0.967003 -0.555651 -0.035826
v -0.152664 -0.468494 -1.015877
v 0.634767 -0.744246 -0.453110
v -0.355128 -0.823748 0.572774
v 0.562464 -0.894893 0.000844
v 0.259955 -1.045937 -0.004655
vn -0.1286 0.6761 -0.7255
vn -0.7349 0.6745 -0.0701
vn 0.2211 0.9746 -0.0358
vn 0.6437 0.4496 -0.6193
vn 0.9559 0.1877 -0.2258
vn -0.1125 0.5843 0.8037
vn 0.7217 0.5568 0.4113
vn -0.7292 0.0499 0.6825
vn -0.7230 0.0450 -0.6894
vn 0.8702 -0.1942 0.4528
vn 0.3113 -0.3436 0.8860
vn -0.8631 -0.5014 -0.0596
vn -0.0853 -0.4191 -0.9039
vn 0.6604 -0.5720 -0.4865
vn 0.6578 -0.7384 -0.1483
vn -0.3230 -0.7908 0.5199
vn 0.1545 -0.9875 -0.0303
vt 0.608113 0.876544
vt 0.115284 0.673267
vt 0.890486 0.716033
vt 0.476840 0.729123
vt 0.281682 0.751348
vt 0.009150 0.616840
vt 0.741354 0.681823
vt 0.625415 0.498114
vt 0.376185 0.510672
vt 0.977613 0.470998
vt 0.796565 0.395301
vt 0.486129 0.336891
vt 0.268704 0.366124
vt 0.109690 0.265383
vt 0.669822 0.228528
vt 0.003214 0.183925
vt 0.869856 0.144647
s 1
usemtl Default_OBJ
f 5/5/1 4/4/2 1/1/3
f 2/2/4 5/5/1 1/1/3
f 6/6/5 2/2/4 1/1/3
f 7/7/6 3/3/7 1/1/3
f 7/7/6 1/1/3 4/4/2
f 8/8/8 7/7/6 4/4/2
f 9/9/9 4/4/2 5/5/1
f 10/10/10 1/1/3 3/3/7
f 11/11/11 7/7/6 8/8/8
f 12/12/12 8/8/8 4/4/2
f 12/12/12 4/4/2 9/9/9
f 13/13/13 9/9/9 5/5/1
f 13/13/13 5/5/1 2/2/4
f 11/11/11 3/3/7 7/7/6
f 14/14/14 2/2/4 6/6/5
f 10/10/10 3/3/7 11/11/11
f 14/14/14 13/13/13 2/2/4
f 16/16/15 14/14/14 6/6/5
f 11/11/11 8/8/8 15/15/16
f 15/15/16 8/8/8 12/12/12
f 12/12/12 9/9/9 13/13/13
f 17/17/17 10/10/10 11/11/11
f 15/15/16 17/17/17 11/11/11
f 17/17/17 12/12/12 13/13/13
f 17/17/17 13/13/13 14/14/14
f 17/17/17 15/15/16 12/12/12
f 16/16/15 17/17/17 14/14/14
