# 3ds Max Wavefront OBJ Exporter v0.97b - (c)2007 guruware
# File Created: 28.10.2016 20:27:55

mtllib sharkMissleShape.mtl

#
# object sharkMissleShape
#

v  13.3227 -7.7311 -124.6204
v  17.4814 -1.4702 -85.5725
v  26.7978 -7.4844 -92.4017
v  10.9406 0.1539 -127.3437
v  -3.4723 6.6224 -130.6468
v  5.4704 10.4757 -127.3437
v  3.4724 6.6224 -130.6468
v  -5.4702 10.4757 -127.3437
v  -10.9405 0.1539 -127.3437
v  -10.0339 15.0158 -85.0596
v  -17.4813 -1.4702 -85.5725
v  -28.4892 22.6887 -31.4674
v  -42.5085 2.6082 -20.5254
v  -28.5767 13.5586 25.7982
v  -20.8093 23.6452 21.7776
v  -10.9850 20.1133 48.9457
v  -0.0001 28.3331 40.1431
v  -0.0001 15.1753 50.2594
v  10.9848 20.1133 48.9457
v  20.8092 23.6452 21.7776
v  28.5765 13.5586 25.7982
v  18.3489 14.0247 43.3700
v  14.6369 8.6503 46.0950
v  11.8306 10.4252 48.1160
v  10.5994 6.7887 51.7714
v  6.9848 8.7959 50.6740
v  5.1356 6.1560 52.0257
v  6.7612 4.0113 52.2844
v  11.2867 3.9250 49.8079
v  -0.0001 1.7026 60.4748
v  -0.0001 -2.3168 75.2892
v  13.5770 -4.5015 62.0348
v  -13.5772 -4.5015 62.0348
v  -18.3491 14.0247 43.3700
v  -14.6371 8.6503 46.0950
v  -22.0544 -13.9150 25.3282
v  -0.0001 -17.6470 17.6352
v  -23.9557 -8.5889 32.9206
v  -15.9695 -30.8129 29.6377
v  -0.0001 -37.6034 35.2478
v  15.9694 -30.8129 29.6377
v  22.0543 -13.9150 25.3281
v  23.9556 -8.5889 32.9206
v  17.0285 -16.7723 43.6816
v  -0.0001 -22.9396 53.7754
v  -17.0287 -16.7723 43.6816
v  -46.3174 -19.2033 -14.4980
v  -24.0033 -15.0542 -32.5280
v  -30.0856 -9.8319 10.5467
v  -50.2999 -21.5025 -49.9758
v  -31.5672 -1.9532 -32.5280
v  -22.5116 -40.1257 -15.1777
v  -8.7406 -17.2339 -85.5725
v  22.5115 -40.1257 -15.1777
v  50.2999 -21.5025 -49.9758
v  24.0033 -15.0542 -32.5280
v  31.5672 -1.9532 -32.5280
v  46.3174 -19.2033 -14.4980
v  30.0856 -9.8319 10.5467
v  0.0000 57.3093 -49.9757
v  7.5639 35.0313 -32.5280
v  -7.5639 35.0313 -32.5280
v  -0.0000 53.3687 -14.4980
v  -0.0000 37.3075 10.5467
v  0.0001 17.1219 -124.6205
v  0.0001 43.7569 -141.7151
v  7.8782 26.8271 -92.4017
v  -7.8781 26.8271 -92.4017
v  10.0340 15.0158 -85.0596
v  -6.9446 0.0705 -130.6468
v  -12.4635 -7.9654 -124.6205
v  -25.9386 -7.7186 -92.4017
v  -18.0604 -22.0265 -92.4017
v  8.7407 -17.2339 -85.5725
v  18.9196 -21.7923 -92.4017
v  5.4704 -10.1679 -127.3437
v  -5.4702 -10.1679 -127.3437
v  3.4724 -6.4814 -130.6468
v  -3.4723 -6.4814 -130.6468
v  37.1724 -25.7584 -141.7152
v  28.4891 22.6887 -31.4674
v  42.5085 2.6082 -20.5254
v  6.9448 0.0705 -130.6468
v  -37.1722 -25.7584 -141.7152
v  -5.7574 -29.3744 39.8182
v  -13.9782 -30.7791 29.5621
v  -2.4788 -36.6678 30.1327
v  -0.7446 -17.1149 49.8413
v  -15.7394 -9.5983 43.1580
v  -11.5616 -28.3802 37.0507
v  13.4756 -9.0272 53.2943
v  -12.7687 -9.0272 53.2943
v  0.3535 -32.7096 41.9846
v  15.7394 -9.5983 43.1579
v  0.7446 -17.1149 49.8413
v  11.5616 -28.3802 37.0507
v  13.9782 -30.7791 29.5621
v  5.7574 -29.3744 39.8182
v  2.4788 -36.6678 30.1327
v  21.0759 -1.1001 44.4790
v  26.6161 2.7333 38.7603
v  33.3165 -0.3789 28.5230
v  28.2419 -16.2293 12.3056
v  20.1304 -35.1429 21.7067
v  -0.0001 -40.7035 28.9042
v  -20.1306 -35.1429 21.7067
v  -28.2420 -16.2293 12.3056
v  -33.3167 -0.3789 28.5230
v  -26.6163 2.7333 38.7603
v  -21.0760 -1.1001 44.4791
v  -11.3476 -13.0903 62.7484
v  -0.0001 -17.0651 65.8029
v  11.3474 -13.0903 62.7484
v  -11.2869 3.9250 49.8079
v  -0.0001 9.2648 52.4968
v  -5.1358 6.1560 52.0257
v  -6.9850 8.7959 50.6740
v  -10.5996 6.7887 51.7714
v  -11.8307 10.4252 48.1160
v  -6.7614 4.0113 52.2845
v  9.6208 14.6597 55.0280
v  -0.0001 10.7301 53.8082
v  -9.6209 14.6597 55.0280
# 123 vertices

vn 0.7654 0.6177 -0.1806
vn 0.4321 0.8821 -0.1875
vn 0.9601 0.2414 -0.1410
vn 0.0000 0.6508 -0.7592
vn -0.8889 0.4378 -0.1348
vn -0.5900 0.7473 -0.3058
vn -0.8744 0.4634 -0.1441
vn -0.9457 0.0687 -0.3176
vn -0.7477 0.6513 -0.1293
vn -0.9998 0.0168 -0.0115
vn -0.8228 0.4489 0.3486
vn -0.5679 0.8029 0.1813
vn -0.4658 0.7307 0.4991
vn -0.0000 0.8714 0.4906
vn -0.0000 0.6095 0.7928
vn 0.4658 0.7307 0.4991
vn 0.5679 0.8029 0.1813
vn 0.8228 0.4489 0.3486
vn 0.8603 0.1095 0.4978
vn 0.6912 0.1981 0.6950
vn 0.4425 0.5568 0.7030
vn 0.4128 0.2064 0.8871
vn 0.7915 0.1140 0.6004
vn 0.0722 0.5754 0.8147
vn 0.0088 0.3066 0.9518
vn 0.2439 -0.1604 0.9564
vn 0.6517 -0.3163 0.6894
vn -0.0000 0.8242 0.5663
vn 0.0000 0.1565 0.9877
vn 0.6237 0.5737 0.5309
vn -0.6237 0.5737 0.5309
vn -0.8603 0.1095 0.4978
vn -0.6912 0.1981 0.6950
vn 0.2710 -0.2905 0.9177
vn 0.1979 0.0902 0.9761
vn 0.0669 -0.8089 0.5842
vn 0.1950 0.5210 0.8310
vn 0.0180 0.6616 0.7496
vn -0.1950 0.5210 0.8310
vn 0.1327 -0.6588 0.7405
vn -0.0180 0.6616 0.7496
vn -0.2710 -0.2905 0.9177
vn 0.2532 -0.9528 0.1678
vn 0.3854 -0.8957 -0.2219
vn 0.2629 -0.9546 -0.1398
vn -0.3854 -0.8957 -0.2219
vn -0.4982 -0.8141 -0.2984
vn -0.2629 -0.9546 -0.1398
vn -0.8090 -0.4671 0.3570
vn 0.4937 -0.8109 -0.3141
vn -0.6934 -0.4003 0.5992
vn -0.0569 -0.0329 -0.9978
vn -0.4554 0.8330 -0.3141
vn -0.6425 -0.7613 -0.0872
vn -0.1810 -0.9441 -0.2754
vn 0.5677 -0.8140 -0.1229
vn 0.0569 -0.0329 -0.9978
vn -0.4937 -0.8109 -0.3141
vn 0.4554 0.8330 -0.3141
vn 0.8090 -0.4671 0.3570
vn 0.6934 -0.4003 0.5992
vn -0.0000 0.1120 -0.9937
vn 0.9542 -0.0131 -0.2988
vn -0.9542 -0.0131 -0.2988
vn -0.0000 0.9500 0.3122
vn -0.0000 0.8418 0.5398
vn 0.0000 -0.5401 -0.8416
vn -0.0000 0.9944 -0.1059
vn 0.7613 0.6409 0.0984
vn -0.7613 0.6409 0.0984
vn 0.0000 0.5279 0.8493
vn 0.9061 0.3670 -0.2103
vn 0.9693 0.0249 -0.2445
vn 0.7322 0.6643 -0.1503
vn -0.6001 0.3180 -0.7340
vn -0.8091 0.5540 -0.1961
vn -0.9798 0.1341 -0.1482
vn -0.4703 0.8588 -0.2033
vn -0.4788 -0.2646 0.8371
vn -0.4788 -0.2645 0.8371
vn -0.4784 -0.2634 0.8377
vn -0.4792 -0.2657 0.8365
vn -0.1035 -0.9636 -0.2466
vn -0.1036 -0.9636 -0.2466
vn -0.5340 -0.8050 -0.2586
vn 0.3487 -0.9193 -0.1828
vn 0.0000 -0.6673 -0.7448
vn 0.3240 -0.5279 -0.7851
vn -0.6072 -0.3218 -0.7264
vn 0.1237 -0.9628 -0.2403
vn 0.1238 -0.9628 -0.2403
vn -0.3594 -0.9151 -0.1829
vn 0.5773 -0.7803 -0.2403
vn 0.1246 -0.9843 0.1253
vn 0.8910 -0.4454 -0.0877
vn 0.9536 0.2857 0.0947
vn -0.4024 0.2908 -0.8681
vn 0.4592 -0.2536 0.8514
vn 0.4588 -0.2537 0.8516
vn 0.4602 -0.2534 0.8509
vn 0.4579 -0.2539 0.8520
vn -0.9061 0.3670 -0.2103
vn -0.7322 0.6643 -0.1504
vn -0.9693 0.0249 -0.2445
vn 0.6901 0.6677 -0.2790
vn 0.8889 0.4378 -0.1348
vn 0.8744 0.4634 -0.1441
vn 0.9457 0.0687 -0.3176
vn 0.7477 0.6513 -0.1293
vn 0.3233 0.9273 -0.1888
vn -0.4008 0.9053 -0.1409
vn -0.0000 0.9839 0.1786
vn 0.9998 0.0168 -0.0115
vn 0.3127 -0.9023 -0.2967
vn 0.0000 -0.9860 -0.1668
vn -0.4132 -0.2190 -0.8839
vn 0.3241 -0.5278 -0.7851
vn 0.6344 -0.1138 -0.7646
vn 0.6072 -0.3218 -0.7265
vn 0.6319 0.1098 -0.7672
vn 0.6001 0.3180 -0.7340
vn 0.0000 0.3792 -0.9253
vn 0.3757 -0.1991 -0.9051
vn -0.1336 -0.9830 0.1262
vn -0.9489 0.2965 0.1077
vn -0.8907 -0.4481 -0.0762
vn 0.3986 0.2842 -0.8720
vn -0.4249 -0.7864 0.4483
vn -0.5258 -0.3665 0.7675
vn 0.0000 -0.4309 0.9024
vn 0.5258 -0.3665 0.7675
vn 0.4249 -0.7864 0.4483
vn 0.7714 -0.2294 0.5936
vn 0.6822 -0.6013 0.4159
vn 0.7907 -0.3554 0.4986
vn 0.7928 -0.4160 0.4454
vn 0.6738 -0.4576 0.5801
vn 0.7968 -0.4187 0.4356
vn 0.6771 -0.6464 0.3517
vn 0.7040 -0.6521 0.2812
vn 0.7927 -0.4115 0.4498
vn 0.6936 -0.4831 0.5344
vn 0.6887 -0.4204 0.5908
vn 0.0000 -0.8248 0.5655
vn 0.0000 -0.8985 0.4391
vn -0.6936 -0.4831 0.5344
vn -0.6887 -0.4204 0.5908
vn -0.7968 -0.4187 0.4356
vn -0.7927 -0.4115 0.4498
vn -0.6771 -0.6464 0.3517
vn -0.7040 -0.6521 0.2812
vn -0.6738 -0.4576 0.5801
vn -0.7928 -0.4160 0.4454
vn -0.7907 -0.3554 0.4986
vn -0.7425 -0.5358 0.4020
vn -0.8524 -0.2437 0.4627
vn -0.7112 -0.6198 0.3316
vn -0.0000 -0.9282 0.3720
vn -0.0000 -0.8985 0.4389
vn 0.3842 -0.8785 0.2841
vn 0.7942 0.1697 0.5835
vn 0.7671 -0.2856 0.5744
vn 0.9130 -0.2521 0.3207
vn -0.0000 -0.5410 0.8410
vn -0.6998 -0.2915 0.6521
vn -0.7258 0.2779 0.6293
vn -0.5040 0.6237 0.5974
vn -0.6945 0.4053 0.5945
vn -0.9553 0.1032 0.2769
vn -0.9093 -0.3930 0.1365
vn -0.6885 -0.7114 0.1406
vn 0.0000 -0.9953 0.0971
vn 0.6885 -0.7114 0.1406
vn 0.9093 -0.3931 0.1365
vn 0.9553 0.1032 0.2769
vn 0.6945 0.4053 0.5945
vn 0.5040 0.6237 0.5974
vn 0.4049 0.7291 0.5518
vn 0.4439 0.5003 0.7434
vn 0.0000 0.5213 0.8534
vn 0.2598 0.2897 0.9212
vn -0.0088 0.3066 0.9518
vn -0.0722 0.5754 0.8147
vn -0.4128 0.2064 0.8871
vn -0.4425 0.5568 0.7030
vn -0.7915 0.1140 0.6004
vn -0.6517 -0.3163 0.6894
vn -0.2440 -0.1605 0.9564
vn -0.4439 0.5003 0.7434
vn -0.2598 0.2897 0.9212
vn -0.4049 0.7291 0.5518
vn -0.5866 0.0054 0.8098
vn 0.5866 0.0054 0.8098
vn 0.7974 -0.0608 0.6003
vn 0.2823 0.6819 0.6748
vn 0.3450 -0.1475 0.9270
vn 0.0000 0.7038 0.7104
vn -0.0000 -0.0465 0.9989
vn -0.3450 -0.1475 0.9270
vn -0.2823 0.6819 0.6748
vn -0.7974 -0.0608 0.6003
vn -0.5963 -0.5854 0.5493
vn -0.3421 -0.6545 0.6743
vn 0.0000 -0.6539 0.7566
vn 0.3421 -0.6545 0.6743
vn 0.5963 -0.5854 0.5493
# 206 vertex normals

vt 1.4633 0.0000 0.0000
vt -0.8077 0.4932 0.0000
vt -0.4633 0.0000 0.0000
vt 1.8077 0.4932 0.0000
vt -0.9361 0.0257 0.0000
vt -0.9361 0.3448 0.0000
vt 0.9777 0.6389 0.0000
vt 0.9777 0.8833 0.0000
vt 0.9777 0.8087 0.0000
vt 0.9777 0.6122 0.0000
vt 0.6941 1.0096 0.0000
vt 0.5655 0.6792 0.0000
vt 0.0211 0.8594 0.0000
vt 0.0684 1.0253 0.0000
vt 0.0684 0.9672 0.0000
vt 0.0684 0.8860 0.0000
vt 0.0684 0.8670 0.0000
vt -0.0109 0.7786 0.0000
vt 0.7423 0.2927 0.0000
vt 0.7248 0.1928 0.0000
vt 0.8237 0.2468 0.0000
vt 0.6602 0.2688 0.0000
vt 0.6317 0.1687 0.0000
vt 0.6916 0.0983 0.0000
vt 0.7935 0.0945 0.0000
vt -0.0109 0.6643 0.0000
vt -0.0109 0.5982 0.0000
vt -0.0109 0.5623 0.0000
vt 0.0180 0.9843 0.0000
vt 0.0178 0.9838 0.0000
vt 0.0176 0.9844 0.0000
vt 0.0177 0.9846 0.0000
vt 0.0175 0.9838 0.0000
vt 1.2465 0.5840 0.0000
vt 0.3142 -0.0412 0.0000
vt 1.5878 -0.0436 0.0000
vt 0.3791 0.9108 0.0000
vt 0.5027 0.3694 0.0000
vt 0.9777 0.3694 0.0000
vt 1.5225 0.8867 0.0000
vt 0.9330 0.0000 0.0000
vt 0.3237 0.7299 0.0000
vt -0.5225 0.0000 0.0000
vt 0.0551 0.9777 0.0000
vt 0.7506 0.0000 0.0000
vt -0.6758 0.4932 0.0000
vt -0.2769 0.0000 0.0000
vt 1.1495 0.4932 0.0000
vt 0.7066 1.0253 0.0000
vt 0.2004 1.0253 0.0000
vt 0.9777 0.4691 0.0000
vt 0.7000 0.4965 0.0000
vt 0.5006 0.0025 0.0000
vt 0.2815 0.4965 0.0000
vt 0.3342 0.1975 0.0000
vt 0.1677 0.2585 0.0000
vt 0.0945 0.1304 0.0000
vt 0.0492 0.2585 0.0000
vt 0.0492 0.1304 0.0000
vt -0.0135 0.2585 0.0000
vt -0.0135 0.1304 0.0000
vt 0.8144 0.3610 0.0000
vt 0.3720 0.0195 0.0000
vt 0.9453 0.3610 0.0000
vt 0.8104 0.0195 0.0000
vt 1.0325 0.3610 0.0000
vt 1.1203 0.0195 0.0000
vt 1.4732 0.3610 0.0000
vt 1.4404 0.0195 0.0000
vt 0.9745 0.3610 0.0000
vt 0.3707 0.3610 0.0000
vt 0.4596 0.0195 0.0000
vt -0.2064 0.0195 0.0000
vt -0.1867 0.3610 0.0000
vt 0.9686 0.3610 0.0000
vt 0.8272 0.0195 0.0000
vt 1.0493 0.3610 0.0000
vt 0.7504 0.3610 0.0000
vt 0.2450 0.3610 0.0000
vt -0.1010 0.3610 0.0000
vt -0.1010 0.0195 0.0000
vt -0.0109 0.6182 0.0000
vt -0.0109 0.4210 0.0000
vt -0.0109 0.3694 0.0000
vt -0.0109 0.7009 0.0000
vt -0.0109 0.6813 0.0000
vt -0.0109 0.6301 0.0000
vt 0.1797 0.3694 0.0000
vt 0.0692 0.3694 0.0000
vt -0.0154 0.3694 0.0000
vt -0.0109 0.7023 0.0000
vt -0.0109 0.7376 0.0000
vt -0.0109 0.7887 0.0000
vt -0.0109 0.7810 0.0000
vt -0.7145 0.3485 0.0000
vt -0.2271 0.3491 0.0000
vt -0.1368 0.2020 0.0000
vt 0.5000 0.3491 0.0000
vt 0.5000 0.2020 0.0000
vt 1.1368 0.2020 0.0000
vt 1.2271 0.3491 0.0000
vt 1.7145 0.3449 0.0000
vt 1.2831 0.0565 0.0000
vt 0.9623 0.0565 0.0000
vt 0.5000 0.0565 0.0000
vt 0.0377 0.0565 0.0000
vt -0.2831 0.0565 0.0000
# 107 texture coords

g sharkMissleShape
usemtl Material__25
s 1
f 1/1/1 2/2/1 3/3/2 
f 2/2/1 1/1/1 4/4/3 
f 5/5/4 6/6/4 7/5/4 
f 6/6/4 5/5/4 8/6/4 
f 9/7/5 10/8/6 8/9/7 
f 11/10/8 10/8/6 9/7/5 
f 10/8/6 11/10/8 12/11/9 
f 13/12/10 12/11/9 11/10/8 
f 14/13/11 12/11/9 13/12/10 
f 12/11/9 14/13/11 15/14/12 
f 16/15/13 15/14/12 14/13/11 
f 15/14/12 16/15/13 17/14/14 
f 18/16/15 17/14/14 16/15/13 
f 19/15/16 17/14/14 18/16/15 
f 17/14/14 19/15/16 20/14/17 
f 20/14/17 19/15/16 21/13/18 
f 22/17/19 21/13/18 19/15/16 
f 21/13/18 22/17/19 23/18/20 
f 24/19/21 25/20/22 23/21/23 
f 26/22/24 25/20/22 24/19/21 
f 27/23/25 25/20/22 26/22/24 
f 28/24/26 25/20/22 27/23/25 
f 29/25/27 25/20/22 28/24/26 
f 25/20/22 29/25/27 23/21/23 
f 30/26/28 31/27/29 32/28/30 
f 31/27/29 30/26/28 33/28/31 
f 14/13/11 34/17/32 16/15/13 
f 34/17/32 14/13/11 35/18/33 
f 36/29/34 37/29/35 38/29/36 
f 39/29/37 37/29/35 36/29/34 
f 37/29/35 39/29/37 40/29/38 
f 41/29/39 37/29/40 40/29/41 
f 42/29/42 37/29/40 41/29/39 
f 43/29/43 37/29/40 42/29/42 
f 44/29/44 37/29/40 43/29/43 
f 37/29/40 44/29/44 45/29/45 
f 37/30/46 46/31/46 38/32/47 
f 46/31/46 37/30/46 45/33/48 
f 47/34/49 48/35/50 49/36/51 
f 50/37/52 48/35/50 47/34/49 
f 48/35/50 50/37/52 51/35/53 
f 47/34/49 51/35/53 50/37/52 
f 51/35/53 47/34/49 49/36/51 
f 11/10/8 52/38/54 13/12/10 
f 53/39/55 52/38/54 11/10/8 
f 52/38/54 53/39/55 54/38/56 
f 55/37/57 56/35/58 57/35/59 
f 56/35/58 55/37/57 58/34/60 
f 57/35/59 58/34/60 55/37/57 
f 59/36/61 58/34/60 57/35/59 
f 58/34/60 59/36/61 56/35/58 
f 60/40/62 61/41/63 62/41/64 
f 61/41/63 60/40/62 63/42/65 
f 62/41/64 63/42/65 60/40/62 
f 64/43/66 63/42/65 62/41/64 
f 63/42/65 64/43/66 61/41/63 
f 65/44/67 66/44/68 67/44/69 
f 68/44/70 66/44/68 65/44/67 
f 66/44/68 68/44/70 67/44/69 
f 68/45/71 69/46/71 67/47/71 
f 69/46/71 68/45/71 10/48/71 
f 69/4/72 65/3/72 67/1/73 
f 65/3/72 69/4/72 6/2/74 
f 70/5/75 8/6/75 5/5/75 
f 8/6/75 70/5/75 9/6/75 
f 71/3/76 11/4/76 9/2/77 
f 11/4/76 71/3/76 72/1/78 
f 53/48/79 72/47/80 73/45/81 
f 72/47/80 53/48/79 11/46/82 
f 74/4/83 1/3/84 75/1/85 
f 1/3/84 74/4/83 76/2/86 
f 77/6/87 78/5/88 76/6/87 
f 78/5/88 77/6/87 79/5/87 
f 9/6/89 79/5/89 77/6/89 
f 79/5/89 9/6/89 70/5/89 
f 53/2/90 71/1/91 77/4/92 
f 71/1/91 53/2/90 73/3/93 
f 75/44/94 80/44/95 3/44/96 
f 1/44/97 80/44/95 75/44/94 
f 80/44/95 1/44/97 3/44/96 
f 2/48/98 75/47/99 3/45/100 
f 75/47/99 2/48/98 74/46/101 
f 10/2/102 65/1/102 8/4/103 
f 65/1/102 10/2/102 68/3/104 
f 69/8/105 4/7/106 6/9/107 
f 4/7/106 69/8/105 2/10/108 
f 2/10/108 69/8/105 81/11/109 
f 81/11/109 69/8/105 61/49/110 
f 10/8/6 61/49/110 69/8/105 
f 61/49/110 10/8/6 62/49/111 
f 12/11/9 62/49/111 10/8/6 
f 15/14/12 62/49/111 12/11/9 
f 62/49/111 15/14/12 64/50/112 
f 17/14/14 64/50/112 15/14/12 
f 20/14/17 64/50/112 17/14/14 
f 64/50/112 20/14/17 61/49/110 
f 61/49/110 20/14/17 81/11/109 
f 21/13/18 81/11/109 20/14/17 
f 82/12/113 81/11/109 21/13/18 
f 81/11/109 82/12/113 2/10/108 
f 54/38/56 2/10/108 82/12/113 
f 2/10/108 54/38/56 74/39/114 
f 53/39/55 74/39/114 54/38/56 
f 74/39/114 53/39/55 76/51/115 
f 77/51/115 76/51/115 53/39/55 
f 77/52/116 71/53/116 9/54/116 
f 78/5/117 4/6/118 76/6/119 
f 83/5/120 4/6/118 78/5/117 
f 4/6/118 83/5/120 6/6/121 
f 7/5/121 6/6/121 83/5/120 
f 8/52/122 65/53/122 6/54/122 
f 4/52/123 1/53/123 76/54/123 
f 73/44/124 72/44/125 84/44/126 
f 71/44/127 84/44/126 72/44/125 
f 84/44/126 71/44/127 73/44/124 
f 85/55/128 86/56/128 87/57/128 
f 88/58/129 89/59/129 90/55/129 
f 91/60/130 92/61/130 93/55/130 
f 94/58/131 95/59/131 96/55/131 
f 97/56/132 98/55/132 99/57/132 
f 100/62/133 44/63/134 101/64/135 
f 43/65/136 101/64/135 44/63/134 
f 101/64/135 43/65/136 102/66/137 
f 42/67/138 102/68/139 43/69/140 
f 102/68/139 42/67/138 103/70/141 
f 103/70/141 42/67/138 104/71/142 
f 41/72/143 104/71/142 42/67/138 
f 40/73/144 104/71/142 41/72/143 
f 104/71/142 40/73/144 105/74/145 
f 105/74/145 40/73/144 106/71/146 
f 39/72/147 106/71/146 40/73/144 
f 36/67/148 106/71/146 39/72/147 
f 106/71/146 36/67/148 107/70/149 
f 107/70/149 36/67/148 108/68/150 
f 38/69/151 108/68/150 36/67/148 
f 108/75/152 38/76/153 109/77/154 
f 46/63/155 109/77/154 38/76/153 
f 109/77/154 46/63/155 110/78/156 
f 110/78/156 46/63/155 111/79/157 
f 111/79/157 46/63/155 112/80/158 
f 45/81/159 112/80/158 46/63/155 
f 44/63/134 112/80/158 45/81/159 
f 112/80/158 44/63/134 113/79/160 
f 100/82/161 113/83/162 44/84/163 
f 32/28/30 113/83/162 100/82/161 
f 31/27/29 113/83/162 32/28/30 
f 113/83/162 31/27/29 112/84/164 
f 112/84/164 31/27/29 111/83/165 
f 33/28/31 111/83/165 31/27/29 
f 111/83/165 33/28/31 110/82/166 
f 114/85/167 110/82/166 33/28/31 
f 35/18/33 110/82/166 114/85/167 
f 110/82/166 35/18/33 109/86/168 
f 14/13/11 109/86/168 35/18/33 
f 109/86/168 14/13/11 108/87/169 
f 13/12/10 108/87/169 14/13/11 
f 108/87/169 13/12/10 107/88/170 
f 52/38/54 107/88/170 13/12/10 
f 107/88/170 52/38/54 106/89/171 
f 106/89/171 52/38/54 105/90/172 
f 54/38/56 105/90/172 52/38/54 
f 105/90/172 54/38/56 104/89/173 
f 104/89/173 54/38/56 103/88/174 
f 82/12/113 103/88/174 54/38/56 
f 103/88/174 82/12/113 102/87/175 
f 21/13/18 102/87/175 82/12/113 
f 102/87/175 21/13/18 101/86/176 
f 23/18/20 101/86/176 21/13/18 
f 101/86/176 23/18/20 100/82/161 
f 29/85/177 100/82/161 23/18/20 
f 100/82/161 29/85/177 32/28/30 
f 28/91/178 32/28/30 29/85/177 
f 32/28/30 28/91/178 30/26/28 
f 27/92/179 30/26/28 28/91/178 
f 30/26/28 27/92/179 115/93/180 
f 26/94/181 115/93/180 27/92/179 
f 116/23/182 117/22/183 118/20/184 
f 119/19/185 118/20/184 117/22/183 
f 35/21/186 118/20/184 119/19/185 
f 114/25/187 118/20/184 35/21/186 
f 120/24/188 118/20/184 114/25/187 
f 118/20/184 120/24/188 116/23/182 
f 116/92/189 115/93/180 117/94/190 
f 115/93/180 116/92/189 30/26/28 
f 120/91/191 30/26/28 116/92/189 
f 30/26/28 120/91/191 33/28/31 
f 114/85/167 33/28/31 120/91/191 
f 119/44/192 34/44/192 35/44/192 
f 22/44/193 24/44/193 23/44/193 
f 22/95/194 19/96/195 121/97/196 
f 18/98/197 121/97/196 19/96/195 
f 121/97/196 18/98/197 122/99/198 
f 122/99/198 18/98/197 123/100/199 
f 16/101/200 123/100/199 18/98/197 
f 34/102/201 123/100/199 16/101/200 
f 119/103/202 123/100/199 34/102/201 
f 117/104/203 123/100/199 119/103/202 
f 115/105/204 123/100/199 117/104/203 
f 123/100/199 115/105/204 122/99/198 
f 122/99/198 115/105/204 121/97/196 
f 26/106/205 121/97/196 115/105/204 
f 24/107/206 121/97/196 26/106/205 
f 121/97/196 24/107/206 22/95/194 
# 0 polygons - 203 triangles

