# Generated with liteGL.js by Javi Agenjo

v -10.3078 0.2891 -2.1139
v -9.0587 0.1125 2.7895
v -11.5249 4.4632 2.5716
v -10.3078 0.2891 -2.1139
v -11.5249 4.4632 2.5716
v -14.0709 4.0527 -3.4719
v -7.0206 0.2998 -4.9217
v -10.3078 0.2891 -2.1139
v -14.0709 4.0527 -3.4719
v -7.0206 0.2998 -4.9217
v -14.0709 4.0527 -3.4719
v -8.4491 2.7285 -5.8364
v -1.1716 0.0949 -6.3967
v -7.0206 0.2998 -4.9217
v -8.4491 2.7285 -5.8364
v -1.1716 0.0949 -6.3967
v -8.4491 2.7285 -5.8364
v -3.8535 4.4632 -6.5315
v -1.1716 0.0949 -6.3967
v -3.8535 4.4632 -6.5315
v -0.3123 4.4632 -7.0400
v 5.7517 0.1905 -4.6658
v -1.1716 0.0949 -6.3967
v -0.3123 4.4632 -7.0400
v 5.7517 0.1905 -4.6658
v -0.3123 4.4632 -7.0400
v 4.7743 4.4632 -5.5006
v 5.7517 0.1905 -4.6658
v 4.7743 4.4632 -5.5006
v 6.6423 2.6243 -4.7098
v 11.0727 0.1303 -1.1244
v 5.7517 0.1905 -4.6658
v 6.6423 2.6243 -4.7098
v 13.1687 0.1275 3.9506
v 11.0727 0.1303 -1.1244
v 12.4250 2.6621 -0.1461
v 13.1687 0.1275 3.9506
v 12.4250 2.6621 -0.1461
v 12.6842 3.9540 2.6116
v 10.6961 0.1107 7.8928
v 13.1687 0.1275 3.9506
v 12.6842 3.9540 2.6116
v 10.6961 0.1107 7.8928
v 12.6842 3.9540 2.6116
v 11.7447 2.6196 7.3300
v -3.1980 0.0491 7.3200
v 4.3899 0.1590 8.9561
v -1.0881 4.4632 8.8372
v -3.1980 0.0491 7.3200
v -1.0881 4.4632 8.8372
v -4.4942 4.4632 8.0359
v -9.0587 0.1125 2.7895
v -3.1980 0.0491 7.3200
v -4.4942 4.4632 8.0359
v -9.0587 0.1125 2.7895
v -4.4942 4.4632 8.0359
v -11.5249 4.4632 2.5716
v -3.8107 7.4853 -5.0198
v 2.1011 6.9173 -5.9364
v -0.3123 4.4632 -7.0400
v -3.8107 7.4853 -5.0198
v -0.3123 4.4632 -7.0400
v -3.8535 4.4632 -6.5315
v -3.8107 7.4853 -5.0198
v 0.5139 9.8889 -3.5193
v 2.1011 6.9173 -5.9364
v -1.0881 4.4632 8.8372
v 4.3899 0.1590 8.9561
v 10.6961 0.1107 7.8928
v -1.0881 4.4632 8.8372
v 10.6961 0.1107 7.8928
v 11.7447 2.6196 7.3300
v 2.1011 6.9173 -5.9364
v 7.2934 6.6345 -3.2385
v 12.4250 2.6621 -0.1461
v 2.1011 6.9173 -5.9364
v 12.4250 2.6621 -0.1461
v 11.0727 0.1303 -1.1244
v 2.1011 6.9173 -5.9364
v 11.0727 0.1303 -1.1244
v 6.6423 2.6243 -4.7098
v 2.1011 6.9173 -5.9364
v 6.6423 2.6243 -4.7098
v 4.7743 4.4632 -5.5006
v -5.5216 7.2932 5.2352
v -4.4942 4.4632 8.0359
v -1.0881 4.4632 8.8372
v -5.5216 7.2932 5.2352
v -1.0881 4.4632 8.8372
v 11.7447 2.6196 7.3300
v -5.5216 7.2932 5.2352
v 11.7447 2.6196 7.3300
v 12.6842 3.9540 2.6116
v -5.5216 7.2932 5.2352
v 12.6842 3.9540 2.6116
v 8.7929 6.5964 -0.7274
v -5.5216 7.2932 5.2352
v 8.7929 6.5964 -0.7274
v 2.8081 10.1991 0.0929
v -5.5216 7.2932 5.2352
v 2.8081 10.1991 0.0929
v -3.0645 9.8898 2.3063
v -0.3123 4.4632 -7.0400
v 2.1011 6.9173 -5.9364
v 4.7743 4.4632 -5.5006
v 2.8081 10.1991 0.0929
v 8.7929 6.5964 -0.7274
v 7.2934 6.6345 -3.2385
v 2.8081 10.1991 0.0929
v 7.2934 6.6345 -3.2385
v 2.1011 6.9173 -5.9364
v 2.8081 10.1991 0.0929
v 2.1011 6.9173 -5.9364
v 0.5139 9.8889 -3.5193
v 0.5139 9.8889 -3.5193
v -5.5340 9.7087 -3.2292
v -9.1764 9.3993 1.7665
v 0.5139 9.8889 -3.5193
v -9.1764 9.3993 1.7665
v -3.0645 9.8898 2.3063
v 0.5139 9.8889 -3.5193
v -3.0645 9.8898 2.3063
v 2.8081 10.1991 0.0929
v -5.5216 7.2932 5.2352
v -9.1764 9.3993 1.7665
v -12.8661 7.3843 -1.4133
v -5.5216 7.2932 5.2352
v -12.8661 7.3843 -1.4133
v -11.5249 4.4632 2.5716
v -5.5216 7.2932 5.2352
v -11.5249 4.4632 2.5716
v -4.4942 4.4632 8.0359
v -8.9728 8.4326 -4.1091
v -5.5340 9.7087 -3.2292
v 0.5139 9.8889 -3.5193
v -8.9728 8.4326 -4.1091
v 0.5139 9.8889 -3.5193
v -3.8107 7.4853 -5.0198
v -9.1764 9.3993 1.7665
v -5.5216 7.2932 5.2352
v -3.0645 9.8898 2.3063
v -5.5340 9.7087 -3.2292
v -8.9728 8.4326 -4.1091
v -12.8661 7.3843 -1.4133
v -5.5340 9.7087 -3.2292
v -12.8661 7.3843 -1.4133
v -9.1764 9.3993 1.7665
v -14.0709 4.0527 -3.4719
v -8.9728 8.4326 -4.1091
v -3.8107 7.4853 -5.0198
v -14.0709 4.0527 -3.4719
v -3.8107 7.4853 -5.0198
v -3.8535 4.4632 -6.5315
v -14.0709 4.0527 -3.4719
v -3.8535 4.4632 -6.5315
v -8.4491 2.7285 -5.8364
v -12.8661 7.3843 -1.4133
v -14.0709 4.0527 -3.4719
v -11.5249 4.4632 2.5716
v -8.9728 8.4326 -4.1091
v -14.0709 4.0527 -3.4719
v -12.8661 7.3843 -1.4133
v 12.6842 3.9540 2.6116
v 12.4250 2.6621 -0.1461
v 7.2934 6.6345 -3.2385
v 12.6842 3.9540 2.6116
v 7.2934 6.6345 -3.2385
v 8.7929 6.5964 -0.7274
v -3.1980 0.0491 7.3200
v -0.9213 -1.0472 4.2046
v 2.7479 -1.0124 4.8531
v -3.1980 0.0491 7.3200
v 2.7479 -1.0124 4.8531
v 4.3899 0.1590 8.9561
v 5.5636 -1.0207 4.0833
v 6.8843 -1.0178 2.2846
v 13.1687 0.1275 3.9506
v 5.5636 -1.0207 4.0833
v 13.1687 0.1275 3.9506
v 10.6961 0.1107 7.8928
v 3.8536 -0.9920 -2.1139
v 0.2891 -1.0128 -2.7252
v -1.1716 0.0949 -6.3967
v 3.8536 -0.9920 -2.1139
v -1.1716 0.0949 -6.3967
v 5.7517 0.1905 -4.6658
v -10.3078 0.2891 -2.1139
v -7.0206 0.2998 -4.9217
v -2.4861 -0.9473 -1.8646
v -10.3078 0.2891 -2.1139
v -2.4861 -0.9473 -1.8646
v -3.9089 -0.9506 -0.3388
v 4.3899 0.1590 8.9561
v 2.7479 -1.0124 4.8531
v 5.5636 -1.0207 4.0833
v 4.3899 0.1590 8.9561
v 5.5636 -1.0207 4.0833
v 10.6961 0.1107 7.8928
v 6.3843 -1.0103 -0.1431
v 3.8536 -0.9920 -2.1139
v 5.7517 0.1905 -4.6658
v 6.3843 -1.0103 -0.1431
v 5.7517 0.1905 -4.6658
v 11.0727 0.1303 -1.1244
v 13.1687 0.1275 3.9506
v 6.8843 -1.0178 2.2846
v 6.3843 -1.0103 -0.1431
v 13.1687 0.1275 3.9506
v 6.3843 -1.0103 -0.1431
v 11.0727 0.1303 -1.1244
v -7.0206 0.2998 -4.9217
v -1.1716 0.0949 -6.3967
v 0.2891 -1.0128 -2.7252
v -7.0206 0.2998 -4.9217
v 0.2891 -1.0128 -2.7252
v -2.4861 -0.9473 -1.8646
v -9.0587 0.1125 2.7895
v -10.3078 0.2891 -2.1139
v -3.9089 -0.9506 -0.3388
v -9.0587 0.1125 2.7895
v -3.9089 -0.9506 -0.3388
v -3.5656 -1.0189 1.9850
v -3.5656 -1.0189 1.9850
v -3.9089 -0.9506 -0.3388
v -2.4861 -0.9473 -1.8646
v -3.5656 -1.0189 1.9850
v -2.4861 -0.9473 -1.8646
v 0.2891 -1.0128 -2.7252
v -3.5656 -1.0189 1.9850
v 0.2891 -1.0128 -2.7252
v 3.8536 -0.9920 -2.1139
v -3.5656 -1.0189 1.9850
v 3.8536 -0.9920 -2.1139
v 6.3843 -1.0103 -0.1431
v -3.5656 -1.0189 1.9850
v 6.3843 -1.0103 -0.1431
v 6.8843 -1.0178 2.2846
v -3.5656 -1.0189 1.9850
v 6.8843 -1.0178 2.2846
v 5.5636 -1.0207 4.0833
v -3.5656 -1.0189 1.9850
v 5.5636 -1.0207 4.0833
v 2.7479 -1.0124 4.8531
v -3.5656 -1.0189 1.9850
v 2.7479 -1.0124 4.8531
v -0.9213 -1.0472 4.2046
v -3.1980 0.0491 7.3200
v -9.0587 0.1125 2.7895
v -3.5656 -1.0189 1.9850
v -3.1980 0.0491 7.3200
v -3.5656 -1.0189 1.9850
v -0.9213 -1.0472 4.2046

vn -7.8635 -5.4846 2.8433
vn -7.8635 -5.4846 2.8433
vn -7.8635 -5.4846 2.8433
vn -7.8635 -5.4846 2.8433
vn -7.8635 -5.4846 2.8433
vn -7.8635 -5.4846 2.8433
vn -4.6349 -6.2071 -6.3237
vn -4.6047 -6.1942 -6.3583
vn -4.6047 -6.1942 -6.3583
vn -4.6349 -6.2071 -6.3237
vn -4.6047 -6.1942 -6.3583
vn -4.6047 -6.1942 -6.3583
vn -1.6443 -2.1495 -9.6268
vn -1.5962 -2.0705 -9.6522
vn -1.7855 -2.2007 -9.5900
vn -1.6443 -2.1495 -9.6268
vn -1.7855 -2.2007 -9.5900
vn -1.8035 -2.1642 -9.5950
vn -1.6443 -2.1495 -9.6268
vn -1.8035 -2.1642 -9.5950
vn -1.7950 -2.1858 -9.5917
vn 2.6123 -1.5603 -9.5258
vn 2.5956 -1.4768 -9.5437
vn 2.6041 -1.6065 -9.5204
vn 2.6123 -1.5603 -9.5258
vn 2.6041 -1.6065 -9.5204
vn 2.6109 -1.6094 -9.5180
vn 2.6123 -1.5603 -9.5258
vn 2.6109 -1.6094 -9.5180
vn 2.6030 -1.6062 -9.5207
vn 5.3977 -2.1223 -8.1462
vn 5.3973 -2.1033 -8.1514
vn 5.3977 -2.1223 -8.1462
vn 9.5384 -1.4510 -2.6293
vn 9.5384 -1.4510 -2.6293
vn 9.5384 -1.4510 -2.6293
vn 9.5384 -1.4510 -2.6293
vn 9.5384 -1.4510 -2.6293
vn 9.5384 -1.4510 -2.6293
vn 9.2849 0.2847 3.7026
vn 9.2849 0.2847 3.7026
vn 9.2849 0.2847 3.7026
vn 9.2849 0.2847 3.7026
vn 9.2849 0.2847 3.7026
vn 9.2849 0.2847 3.7026
vn -2.0862 -2.2724 9.5123
vn -2.0862 -2.2724 9.5123
vn -2.0862 -2.2724 9.5123
vn -2.0862 -2.2724 9.5123
vn -2.0862 -2.2724 9.5123
vn -2.0862 -2.2724 9.5123
vn -5.8643 -2.9461 7.5452
vn -5.8643 -2.9461 7.5452
vn -5.8643 -2.9461 7.5452
vn -5.8643 -2.9461 7.5452
vn -5.8643 -2.9461 7.5452
vn -5.8643 -2.9461 7.5452
vn -1.0441 4.6636 -8.7841
vn -1.0441 4.6636 -8.7841
vn -1.0441 4.6636 -8.7841
vn -1.0441 4.6636 -8.7841
vn -1.0441 4.6636 -8.7841
vn -1.0441 4.6636 -8.7841
vn -0.6410 6.0890 -7.9066
vn -0.6410 6.0890 -7.9066
vn -0.6410 6.0890 -7.9066
vn 1.4940 1.9413 9.6953
vn 1.4940 1.9413 9.6953
vn 1.4940 1.9413 9.6953
vn 1.4940 1.9413 9.6953
vn 1.4940 1.9413 9.6953
vn 1.4940 1.9413 9.6953
vn 5.6168 0.9796 -8.2153
vn 5.5721 1.0090 -8.2422
vn 5.4965 1.0489 -8.2878
vn 5.6168 0.9796 -8.2153
vn 5.4965 1.0489 -8.2878
vn 5.5516 1.0191 -8.2548
vn 5.6168 0.9796 -8.2153
vn 5.5516 1.0191 -8.2548
vn 5.5937 0.9949 -8.2293
vn 5.6168 0.9796 -8.2153
vn 5.5937 0.9949 -8.2293
vn 5.6208 0.9834 -8.2121
vn 2.5002 8.7259 4.1961
vn 2.2755 8.8037 4.1614
vn 2.2869 8.7596 4.2473
vn 2.5002 8.7259 4.1961
vn 2.2869 8.7596 4.2473
vn 2.3711 8.7539 4.2127
vn 2.5002 8.7259 4.1961
vn 2.3711 8.7539 4.2127
vn 2.1986 8.7831 4.2455
vn 2.5002 8.7259 4.1961
vn 2.1986 8.7831 4.2455
vn 1.9496 8.7736 4.3843
vn 2.5002 8.7259 4.1961
vn 1.9496 8.7736 4.3843
vn 2.8502 8.5363 4.3598
vn 2.5002 8.7259 4.1961
vn 2.8502 8.5363 4.3598
vn 2.4790 8.7291 4.2021
vn 2.8664 1.4403 -9.4715
vn 2.8664 1.4403 -9.4715
vn 2.8664 1.4403 -9.4715
vn 3.8517 8.7158 -3.0331
vn 4.8666 7.2691 -4.8452
vn 4.1880 8.0498 -4.2026
vn 3.8517 8.7158 -3.0331
vn 4.1880 8.0498 -4.2026
vn 4.7729 7.6161 -4.3835
vn 3.8517 8.7158 -3.0331
vn 4.7729 7.6161 -4.3835
vn 4.1880 8.0498 -4.2026
vn -0.5605 9.9827 -0.1788
vn -0.5606 9.9827 -0.1756
vn -0.5609 9.9827 -0.1769
vn -0.5605 9.9827 -0.1788
vn -0.5609 9.9827 -0.1769
vn -0.5611 9.9827 -0.1739
vn -0.5605 9.9827 -0.1788
vn -0.5611 9.9827 -0.1739
vn -0.5608 9.9827 -0.1769
vn -5.7971 4.5902 6.7323
vn -5.7880 4.5913 6.7394
vn -5.7773 4.5906 6.7490
vn -5.7971 4.5902 6.7323
vn -5.7773 4.5906 6.7490
vn -5.7846 4.5924 6.7415
vn -5.7971 4.5902 6.7323
vn -5.7846 4.5924 6.7415
vn -5.7860 4.5917 6.7408
vn -0.4362 6.0589 -7.9435
vn -0.4362 6.0589 -7.9435
vn -0.4362 6.0589 -7.9435
vn -0.4362 6.0589 -7.9435
vn -0.4362 6.0589 -7.9435
vn -0.4362 6.0589 -7.9435
vn -1.1658 7.8971 6.0231
vn -1.1658 7.8971 6.0231
vn -1.1658 7.8971 6.0231
vn -3.3482 9.2785 -1.6426
vn -3.3482 9.2785 -1.6426
vn -3.3482 9.2785 -1.6426
vn -3.3482 9.2785 -1.6426
vn -3.3482 9.2785 -1.6426
vn -3.3482 9.2785 -1.6426
vn -2.3795 2.8257 -9.2926
vn -2.3922 2.8256 -9.2894
vn -2.3893 2.8220 -9.2913
vn -2.3795 2.8257 -9.2926
vn -2.3893 2.8220 -9.2913
vn -2.3981 2.8218 -9.2891
vn -2.3795 2.8257 -9.2926
vn -2.3981 2.8218 -9.2891
vn -2.3897 2.8247 -9.2903
vn -9.1954 0.9726 3.8077
vn -9.1954 0.9726 3.8077
vn -9.1954 0.9726 3.8077
vn -5.6551 5.7177 -5.9437
vn -5.6551 5.7177 -5.9437
vn -5.6551 5.7177 -5.9437
vn 7.5437 4.9533 -4.3078
vn 6.5484 6.3465 -4.1037
vn 7.0737 5.9715 -3.7822
vn 7.5437 4.9533 -4.3078
vn 7.0737 5.9715 -3.7822
vn 7.2883 6.3527 -2.5544
vn -0.4772 -9.5414 2.9554
vn -0.4772 -9.5414 2.9554
vn -0.4772 -9.5414 2.9554
vn -0.4772 -9.5414 2.9554
vn -0.4772 -9.5414 2.9554
vn -0.4772 -9.5414 2.9554
vn 1.5023 -9.8399 0.9590
vn 1.5023 -9.8399 0.9590
vn 1.5023 -9.8399 0.9590
vn 1.5023 -9.8399 0.9590
vn 1.5023 -9.8399 0.9590
vn 1.5023 -9.8399 0.9590
vn 0.8606 -9.3693 -3.3875
vn 0.8606 -9.3693 -3.3875
vn 0.9400 -9.3494 -3.4212
vn 0.8606 -9.3693 -3.3875
vn 0.9400 -9.3494 -3.4212
vn 0.8578 -9.3758 -3.3704
vn -1.4887 -9.7500 -1.6494
vn -1.4459 -9.7588 -1.6355
vn -1.4887 -9.7500 -1.6494
vn -1.4887 -9.7500 -1.6494
vn -1.4887 -9.7500 -1.6494
vn -1.4887 -9.7500 -1.6494
vn 0.4320 -9.6859 2.4490
vn 0.4320 -9.6859 2.4490
vn 0.4320 -9.6859 2.4490
vn 0.4320 -9.6859 2.4490
vn 0.4320 -9.6859 2.4490
vn 0.4320 -9.6859 2.4490
vn 1.8450 -9.4321 -2.7624
vn 1.8450 -9.4321 -2.7624
vn 1.8635 -9.4296 -2.7587
vn 1.8450 -9.4321 -2.7624
vn 1.8635 -9.4296 -2.7587
vn 1.8450 -9.4321 -2.7624
vn 2.0778 -9.7543 -0.7324
vn 2.0778 -9.7543 -0.7324
vn 2.0778 -9.7543 -0.7324
vn 2.0778 -9.7543 -0.7324
vn 2.0778 -9.7543 -0.7324
vn 2.0778 -9.7543 -0.7324
vn -0.9402 -9.6304 -2.5240
vn -0.9079 -9.6523 -2.4513
vn -0.9788 -9.6331 -2.4991
vn -0.9402 -9.6304 -2.5240
vn -0.9788 -9.6331 -2.4991
vn -0.9788 -9.6331 -2.4991
vn -1.9631 -9.8049 0.1002
vn -1.9631 -9.8049 0.1002
vn -1.9631 -9.8049 0.1002
vn -1.9631 -9.8049 0.1002
vn -1.9631 -9.8049 0.1002
vn -1.9631 -9.8049 0.1002
vn -0.0203 -9.9998 -0.0614
vn -0.0203 -9.9998 -0.0614
vn -0.0203 -9.9998 -0.0614
vn -0.0203 -9.9998 -0.0614
vn -0.0203 -9.9998 -0.0614
vn -0.0203 -9.9998 -0.0614
vn -0.0203 -9.9998 -0.0614
vn -0.0203 -9.9998 -0.0614
vn -0.0203 -9.9998 -0.0614
vn -0.0203 -9.9998 -0.0614
vn -0.0203 -9.9998 -0.0614
vn -0.0203 -9.9998 -0.0614
vn -0.0203 -9.9998 -0.0614
vn -0.0203 -9.9998 -0.0614
vn -0.0203 -9.9998 -0.0614
vn -0.0203 -9.9998 -0.0614
vn -0.0203 -9.9998 -0.0614
vn -0.0203 -9.9998 -0.0614
vn -0.0203 -9.9998 -0.0614
vn -0.0203 -9.9998 -0.0614
vn -0.0203 -9.9998 -0.0614
vn -0.0203 -9.9998 -0.0614
vn -0.0203 -9.9998 -0.0614
vn -0.0203 -9.9998 -0.0614
vn -1.7291 -9.6341 2.0478
vn -1.7291 -9.6341 2.0478
vn -1.7291 -9.6341 2.0478
vn -1.7291 -9.6341 2.0478
vn -1.7291 -9.6341 2.0478
vn -1.7291 -9.6341 2.0478

vt 0.5000 0.5000  0.0000
vt 0.5000 0.5000  0.0000
vt 0.5000 0.5000  0.0000
vt 0.5000 0.5000  0.0000
vt 0.5000 0.5000  0.0000
vt 0.5000 0.5000  0.0000
vt 0.5000 0.5000  0.0000
vt 0.5000 0.5000  0.0000
vt 0.5000 0.5000  0.0000
vt 0.5000 0.5000  0.0000
vt 0.5000 0.5000  0.0000
vt 0.5000 0.5000  0.0000
vt 0.5000 0.5000  0.0000
vt 0.5000 0.5000  0.0000
vt 0.5000 0.5000  0.0000
vt 0.5000 0.5000  0.0000
vt 0.5000 0.5000  0.0000
vt 0.5000 0.5000  0.0000
vt 0.5000 0.5000  0.0000
vt 0.5000 0.5000  0.0000
vt 0.5000 0.5000  0.0000
vt 0.5000 0.5000  0.0000
vt 0.5000 0.5000  0.0000
vt 0.5000 0.5000  0.0000
vt 0.5000 0.5000  0.0000
vt 0.5000 0.5000  0.0000
vt 0.5000 0.5000  0.0000
vt 0.5000 0.5000  0.0000
vt 0.5000 0.5000  0.0000
vt 0.5000 0.5000  0.0000
vt 0.5000 0.5000  0.0000
vt 0.5000 0.5000  0.0000
vt 0.5000 0.5000  0.0000
vt 0.5000 0.5000  0.0000
vt 0.5000 0.5000  0.0000
vt 0.5000 0.5000  0.0000
vt 0.5000 0.5000  0.0000
vt 0.5000 0.5000  0.0000
vt 0.5000 0.5000  0.0000
vt 0.5000 0.5000  0.0000
vt 0.5000 0.5000  0.0000
vt 0.5000 0.5000  0.0000
vt 0.5000 0.5000  0.0000
vt 0.5000 0.5000  0.0000
vt 0.5000 0.5000  0.0000
vt 0.5000 0.5000  0.0000
vt 0.5000 0.5000  0.0000
vt 0.5000 0.5000  0.0000
vt 0.5000 0.5000  0.0000
vt 0.5000 0.5000  0.0000
vt 0.5000 0.5000  0.0000
vt 0.5000 0.5000  0.0000
vt 0.5000 0.5000  0.0000
vt 0.5000 0.5000  0.0000
vt 0.5000 0.5000  0.0000
vt 0.5000 0.5000  0.0000
vt 0.5000 0.5000  0.0000
vt 0.5000 0.5000  0.0000
vt 0.5000 0.5000  0.0000
vt 0.5000 0.5000  0.0000
vt 0.5000 0.5000  0.0000
vt 0.5000 0.5000  0.0000
vt 0.5000 0.5000  0.0000
vt 0.5000 0.5000  0.0000
vt 0.5000 0.5000  0.0000
vt 0.5000 0.5000  0.0000
vt 0.5000 0.5000  0.0000
vt 0.5000 0.5000  0.0000
vt 0.5000 0.5000  0.0000
vt 0.5000 0.5000  0.0000
vt 0.5000 0.5000  0.0000
vt 0.5000 0.5000  0.0000
vt 0.5000 0.5000  0.0000
vt 0.5000 0.5000  0.0000
vt 0.5000 0.5000  0.0000
vt 0.5000 0.5000  0.0000
vt 0.5000 0.5000  0.0000
vt 0.5000 0.5000  0.0000
vt 0.5000 0.5000  0.0000
vt 0.5000 0.5000  0.0000
vt 0.5000 0.5000  0.0000
vt 0.5000 0.5000  0.0000
vt 0.5000 0.5000  0.0000
vt 0.5000 0.5000  0.0000
vt 0.5000 0.5000  0.0000
vt 0.5000 0.5000  0.0000
vt 0.5000 0.5000  0.0000
vt 0.5000 0.5000  0.0000
vt 0.5000 0.5000  0.0000
vt 0.5000 0.5000  0.0000
vt 0.5000 0.5000  0.0000
vt 0.5000 0.5000  0.0000
vt 0.5000 0.5000  0.0000
vt 0.5000 0.5000  0.0000
vt 0.5000 0.5000  0.0000
vt 0.5000 0.5000  0.0000
vt 0.5000 0.5000  0.0000
vt 0.5000 0.5000  0.0000
vt 0.5000 0.5000  0.0000
vt 0.5000 0.5000  0.0000
vt 0.5000 0.5000  0.0000
vt 0.5000 0.5000  0.0000
vt 0.5000 0.5000  0.0000
vt 0.5000 0.5000  0.0000
vt 0.5000 0.5000  0.0000
vt 0.5000 0.5000  0.0000
vt 0.5000 0.5000  0.0000
vt 0.5000 0.5000  0.0000
vt 0.5000 0.5000  0.0000
vt 0.5000 0.5000  0.0000
vt 0.5000 0.5000  0.0000
vt 0.5000 0.5000  0.0000
vt 0.5000 0.5000  0.0000
vt 0.5000 0.5000  0.0000
vt 0.5000 0.5000  0.0000
vt 0.5000 0.5000  0.0000
vt 0.5000 0.5000  0.0000
vt 0.5000 0.5000  0.0000
vt 0.5000 0.5000  0.0000
vt 0.5000 0.5000  0.0000
vt 0.5000 0.5000  0.0000
vt 0.5000 0.5000  0.0000
vt 0.5000 0.5000  0.0000
vt 0.5000 0.5000  0.0000
vt 0.5000 0.5000  0.0000
vt 0.5000 0.5000  0.0000
vt 0.5000 0.5000  0.0000
vt 0.5000 0.5000  0.0000
vt 0.5000 0.5000  0.0000
vt 0.5000 0.5000  0.0000
vt 0.5000 0.5000  0.0000
vt 0.5000 0.5000  0.0000
vt 0.5000 0.5000  0.0000
vt 0.5000 0.5000  0.0000
vt 0.5000 0.5000  0.0000
vt 0.5000 0.5000  0.0000
vt 0.5000 0.5000  0.0000
vt 0.5000 0.5000  0.0000
vt 0.5000 0.5000  0.0000
vt 0.5000 0.5000  0.0000
vt 0.5000 0.5000  0.0000
vt 0.5000 0.5000  0.0000
vt 0.5000 0.5000  0.0000
vt 0.5000 0.5000  0.0000
vt 0.5000 0.5000  0.0000
vt 0.5000 0.5000  0.0000
vt 0.5000 0.5000  0.0000
vt 0.5000 0.5000  0.0000
vt 0.5000 0.5000  0.0000
vt 0.5000 0.5000  0.0000
vt 0.5000 0.5000  0.0000
vt 0.5000 0.5000  0.0000
vt 0.5000 0.5000  0.0000
vt 0.5000 0.5000  0.0000
vt 0.5000 0.5000  0.0000
vt 0.5000 0.5000  0.0000
vt 0.5000 0.5000  0.0000
vt 0.5000 0.5000  0.0000
vt 0.5000 0.5000  0.0000
vt 0.5000 0.5000  0.0000
vt 0.5000 0.5000  0.0000
vt 0.5000 0.5000  0.0000
vt 0.5000 0.5000  0.0000
vt 0.5000 0.5000  0.0000
vt 0.5000 0.5000  0.0000
vt 0.5000 0.5000  0.0000
vt 0.5000 0.5000  0.0000
vt 0.5000 0.5000  0.0000
vt 0.5000 0.5000  0.0000
vt 0.5000 0.5000  0.0000
vt 0.5000 0.5000  0.0000
vt 0.5000 0.5000  0.0000
vt 0.5000 0.5000  0.0000
vt 0.5000 0.5000  0.0000
vt 0.5000 0.5000  0.0000
vt 0.5000 0.5000  0.0000
vt 0.5000 0.5000  0.0000
vt 0.5000 0.5000  0.0000
vt 0.5000 0.5000  0.0000
vt 0.5000 0.5000  0.0000
vt 0.5000 0.5000  0.0000
vt 0.5000 0.5000  0.0000
vt 0.5000 0.5000  0.0000
vt 0.5000 0.5000  0.0000
vt 0.5000 0.5000  0.0000
vt 0.5000 0.5000  0.0000
vt 0.5000 0.5000  0.0000
vt 0.5000 0.5000  0.0000
vt 0.5000 0.5000  0.0000
vt 0.5000 0.5000  0.0000
vt 0.5000 0.5000  0.0000
vt 0.5000 0.5000  0.0000
vt 0.5000 0.5000  0.0000
vt 0.5000 0.5000  0.0000
vt 0.5000 0.5000  0.0000
vt 0.5000 0.5000  0.0000
vt 0.5000 0.5000  0.0000
vt 0.5000 0.5000  0.0000
vt 0.5000 0.5000  0.0000
vt 0.5000 0.5000  0.0000
vt 0.5000 0.5000  0.0000
vt 0.5000 0.5000  0.0000
vt 0.5000 0.5000  0.0000
vt 0.5000 0.5000  0.0000
vt 0.5000 0.5000  0.0000
vt 0.5000 0.5000  0.0000
vt 0.5000 0.5000  0.0000
vt 0.5000 0.5000  0.0000
vt 0.5000 0.5000  0.0000
vt 0.5000 0.5000  0.0000
vt 0.5000 0.5000  0.0000
vt 0.5000 0.5000  0.0000
vt 0.5000 0.5000  0.0000
vt 0.5000 0.5000  0.0000
vt 0.5000 0.5000  0.0000
vt 0.5000 0.5000  0.0000
vt 0.5000 0.5000  0.0000
vt 0.5000 0.5000  0.0000
vt 0.5000 0.5000  0.0000
vt 0.5000 0.5000  0.0000
vt 0.5000 0.5000  0.0000
vt 0.5000 0.5000  0.0000
vt 0.5000 0.5000  0.0000
vt 0.5000 0.5000  0.0000
vt 0.5000 0.5000  0.0000
vt 0.5000 0.5000  0.0000
vt 0.5000 0.5000  0.0000
vt 0.5000 0.5000  0.0000
vt 0.5000 0.5000  0.0000
vt 0.5000 0.5000  0.0000
vt 0.5000 0.5000  0.0000
vt 0.5000 0.5000  0.0000
vt 0.5000 0.5000  0.0000
vt 0.5000 0.5000  0.0000
vt 0.5000 0.5000  0.0000
vt 0.5000 0.5000  0.0000
vt 0.5000 0.5000  0.0000
vt 0.5000 0.5000  0.0000
vt 0.5000 0.5000  0.0000
vt 0.5000 0.5000  0.0000
vt 0.5000 0.5000  0.0000
vt 0.5000 0.5000  0.0000
vt 0.5000 0.5000  0.0000
vt 0.5000 0.5000  0.0000
vt 0.5000 0.5000  0.0000
vt 0.5000 0.5000  0.0000
vt 0.5000 0.5000  0.0000
vt 0.5000 0.5000  0.0000
vt 0.5000 0.5000  0.0000
vt 0.5000 0.5000  0.0000
vt 0.5000 0.5000  0.0000
vt 0.5000 0.5000  0.0000
g mesh_0
usemtl mat_0
f 1/1/1 2/2/2 3/3/3
f 4/4/4 5/5/5 6/6/6
f 7/7/7 8/8/8 9/9/9
f 10/10/10 11/11/11 12/12/12
f 13/13/13 14/14/14 15/15/15
f 16/16/16 17/17/17 18/18/18
f 19/19/19 20/20/20 21/21/21
f 22/22/22 23/23/23 24/24/24
f 25/25/25 26/26/26 27/27/27
f 28/28/28 29/29/29 30/30/30
f 31/31/31 32/32/32 33/33/33
f 34/34/34 35/35/35 36/36/36
f 37/37/37 38/38/38 39/39/39
f 40/40/40 41/41/41 42/42/42
f 43/43/43 44/44/44 45/45/45
f 46/46/46 47/47/47 48/48/48
f 49/49/49 50/50/50 51/51/51
f 52/52/52 53/53/53 54/54/54
f 55/55/55 56/56/56 57/57/57
f 58/58/58 59/59/59 60/60/60
f 61/61/61 62/62/62 63/63/63
f 64/64/64 65/65/65 66/66/66
f 67/67/67 68/68/68 69/69/69
f 70/70/70 71/71/71 72/72/72
f 73/73/73 74/74/74 75/75/75
f 76/76/76 77/77/77 78/78/78
f 79/79/79 80/80/80 81/81/81
f 82/82/82 83/83/83 84/84/84
f 85/85/85 86/86/86 87/87/87
f 88/88/88 89/89/89 90/90/90
f 91/91/91 92/92/92 93/93/93
f 94/94/94 95/95/95 96/96/96
f 97/97/97 98/98/98 99/99/99
f 100/100/100 101/101/101 102/102/102
f 103/103/103 104/104/104 105/105/105
f 106/106/106 107/107/107 108/108/108
f 109/109/109 110/110/110 111/111/111
f 112/112/112 113/113/113 114/114/114
f 115/115/115 116/116/116 117/117/117
f 118/118/118 119/119/119 120/120/120
f 121/121/121 122/122/122 123/123/123
f 124/124/124 125/125/125 126/126/126
f 127/127/127 128/128/128 129/129/129
f 130/130/130 131/131/131 132/132/132
f 133/133/133 134/134/134 135/135/135
f 136/136/136 137/137/137 138/138/138
f 139/139/139 140/140/140 141/141/141
f 142/142/142 143/143/143 144/144/144
f 145/145/145 146/146/146 147/147/147
f 148/148/148 149/149/149 150/150/150
f 151/151/151 152/152/152 153/153/153
f 154/154/154 155/155/155 156/156/156
f 157/157/157 158/158/158 159/159/159
f 160/160/160 161/161/161 162/162/162
f 163/163/163 164/164/164 165/165/165
f 166/166/166 167/167/167 168/168/168
f 169/169/169 170/170/170 171/171/171
f 172/172/172 173/173/173 174/174/174
f 175/175/175 176/176/176 177/177/177
f 178/178/178 179/179/179 180/180/180
f 181/181/181 182/182/182 183/183/183
f 184/184/184 185/185/185 186/186/186
f 187/187/187 188/188/188 189/189/189
f 190/190/190 191/191/191 192/192/192
f 193/193/193 194/194/194 195/195/195
f 196/196/196 197/197/197 198/198/198
f 199/199/199 200/200/200 201/201/201
f 202/202/202 203/203/203 204/204/204
f 205/205/205 206/206/206 207/207/207
f 208/208/208 209/209/209 210/210/210
f 211/211/211 212/212/212 213/213/213
f 214/214/214 215/215/215 216/216/216
f 217/217/217 218/218/218 219/219/219
f 220/220/220 221/221/221 222/222/222
f 223/223/223 224/224/224 225/225/225
f 226/226/226 227/227/227 228/228/228
f 229/229/229 230/230/230 231/231/231
f 232/232/232 233/233/233 234/234/234
f 235/235/235 236/236/236 237/237/237
f 238/238/238 239/239/239 240/240/240
f 241/241/241 242/242/242 243/243/243
f 244/244/244 245/245/245 246/246/246
f 247/247/247 248/248/248 249/249/249
f 250/250/250 251/251/251 252/252/252