# Blender 3.1.0
# www.blender.org
mtllib rock11.mtl
o Rocks11
v -0.691699 0.040617 -20.466509
v -0.771868 0.000682 -20.018661
v -0.830866 0.227482 -20.020748
v -0.859274 0.429477 -20.545109
v -0.390694 0.043037 -20.812605
v -0.839471 0.657302 -20.752005
v -0.502503 0.265031 -20.967333
v 0.070063 -0.003301 -21.009451
v -0.204901 0.657302 -21.172503
v 0.068846 0.657302 -21.240187
v 0.530838 0.018337 -20.849504
v 0.383306 0.657302 -21.126444
v 0.572116 0.241470 -20.906488
v 0.820355 0.004718 -20.497622
v 0.847812 0.088270 -20.506176
v 0.795479 0.004076 -20.038725
v 0.884147 0.250013 -20.414612
v 0.848903 0.249179 -20.083586
v 0.825790 0.188542 -20.030422
v 0.479540 0.000280 -19.658672
v 0.574954 0.240415 -19.716925
v 0.482421 0.031210 -19.654867
v -0.013561 0.011200 -19.523743
v -0.015579 0.104761 -19.503868
v -0.505505 -0.013648 -19.631939
v -0.405658 0.657302 -19.503275
v -0.624155 0.657302 -19.558048
v -0.942315 1.093325 -20.146065
v -0.938186 1.319167 -20.261238
v -0.914690 1.316264 -20.644539
v -0.197845 0.996490 -21.192913
v 0.061512 0.885937 -21.256334
v -0.412431 0.796918 -19.537315
v -0.504854 0.937009 -19.593004
v -0.611064 0.877394 -19.605070
v -0.618586 0.910869 -19.624977
v -0.851283 1.997311 -20.491388
v -0.852681 2.011711 -20.625954
v -0.864261 1.903809 -20.658075
v -0.601126 1.297236 -19.812130
v -0.656987 1.891511 -20.189575
v -0.772502 2.093751 -20.434933
v -0.776086 1.328260 -20.828844
v -0.714265 1.599631 -20.871746
v -0.638468 1.618237 -20.919245
v -0.307600 1.340665 -21.130760
v -0.768540 2.028383 -20.685162
v -0.729815 2.155034 -20.631784
v -0.442984 2.307517 -20.644844
v -0.054375 2.146100 -20.853863
v -0.024656 2.099966 -20.887415
v -0.181563 1.396456 -21.152678
v -0.800896 2.088770 -20.636921
v -0.662754 2.268064 -20.528496
v -0.763864 2.141356 -20.624155
v 0.167883 1.254606 -21.235111
v 0.169595 1.250396 -21.235867
v 0.012414 2.052168 -20.913160
v 0.123225 1.833192 -21.018194
v 0.543558 0.379396 -19.730873
v 0.805696 0.542371 -20.147726
v 0.797100 0.533653 -20.132391
v 0.643547 0.721017 -20.012402
v -0.023399 2.142838 -20.814777
v 0.211722 1.234599 -21.219915
v 0.322744 0.990948 -21.165936
v 0.255710 1.602660 -21.046890
v -0.012554 2.159390 -20.698395
v 0.502169 1.378680 -20.424122
v 0.641518 1.139673 -20.447916
v 0.665701 1.049456 -20.614170
v 0.462077 1.303405 -20.896423
v -0.504286 2.344177 -20.546886
v 0.806996 0.542144 -20.160189
v 0.784803 0.753303 -20.327177
v 0.816632 0.647198 -20.443846
v -0.541640 2.339666 -20.524094
v 0.351732 -0.106803 -20.007654
v -0.281095 -0.085283 -20.482161
v -0.380894 -0.124124 -19.787924
v -0.465498 -0.123374 -19.975641
v -0.253551 -0.145127 -20.136768
v -0.045202 -0.149625 -19.968758
v -0.159530 -0.121095 -19.761255
v 0.306299 -0.146981 -20.350546
v 0.099281 -0.142146 -20.519693
v 0.209998 -0.118493 -20.734936
v 0.421984 -0.109964 -20.696060
v 0.511938 -0.117294 -20.515591
vn -0.0092 -0.0036 -0.0014
vn -0.0073 -0.0048 -0.0049
vn -0.0073 -0.0047 -0.0049
vn -0.0071 -0.0047 -0.0052
vn -0.0071 -0.0048 -0.0051
vn -0.0026 -0.0040 -0.0088
vn -0.0026 -0.0039 -0.0088
vn -0.0027 -0.0040 -0.0087
vn 0.0033 -0.0031 -0.0089
vn 0.0073 -0.0030 -0.0061
vn 0.0097 -0.0024 0.0008
vn 0.0097 -0.0023 0.0008
vn 0.0076 -0.0015 0.0063
vn 0.0026 -0.0018 0.0095
vn -0.0022 -0.0016 0.0096
vn -0.0081 -0.0020 0.0055
vn -0.0100 -0.0009 -0.0004
vn -0.0100 -0.0008 -0.0004
vn -0.0025 -0.0006 -0.0097
vn -0.0024 0.0022 0.0095
vn -0.0088 -0.0002 0.0048
vn -0.0088 -0.0002 0.0047
vn -0.0099 0.0010 -0.0004
vn -0.0075 0.0031 0.0058
vn -0.0092 -0.0004 -0.0040
vn -0.0055 -0.0003 -0.0083
vn -0.0027 0.0042 -0.0087
vn -0.0079 0.0006 -0.0062
vn -0.0081 0.0058 0.0010
vn -0.0057 0.0027 -0.0078
vn -0.0020 0.0011 -0.0097
vn -0.0009 0.0036 -0.0093
vn 0.0030 0.0020 0.0093
vn 0.0078 0.0024 0.0058
vn 0.0060 0.0069 -0.0042
vn 0.0034 -0.0005 -0.0094
vn 0.0042 0.0034 -0.0084
vn -0.0036 0.0045 -0.0081
vn 0.0085 0.0051 -0.0015
vn 0.0030 0.0094 -0.0016
vn -0.0079 0.0061 -0.0009
vn 0.0081 0.0042 0.0041
vn 0.0084 0.0009 -0.0053
vn 0.0075 0.0020 -0.0063
vn 0.0094 0.0033 -0.0005
vn 0.0098 0.0017 0.0010
vn 0.0038 0.0054 0.0075
vn -0.0033 0.0042 0.0084
vn -0.0042 0.0074 -0.0054
vn -0.0039 0.0061 0.0069
vn -0.0002 -0.0100 -0.0002
vn 0.0013 -0.0094 0.0030
vn -0.0030 -0.0094 -0.0016
vn -0.0030 -0.0094 -0.0017
vn -0.0042 -0.0088 0.0023
vn 0.0019 -0.0085 -0.0050
vn 0.0018 -0.0085 -0.0050
vn -0.0030 -0.0092 -0.0026
vn -0.0028 -0.0092 -0.0026
vn -0.0029 -0.0092 -0.0026
vn 0.0028 -0.0096 0.0007
vn 0.0041 -0.0085 -0.0032
vn -0.0020 -0.0094 -0.0028
vn -0.0020 -0.0094 -0.0027
vn -0.0021 -0.0094 -0.0027
vn 0.0025 -0.0095 0.0020
vn -0.0005 -0.0100 0.0006
vn 0.0006 -0.0099 -0.0008
vn -0.0007 -0.0085 0.0053
vt 0.107467 0.689075
vt 0.749992 0.647904
vt 0.173848 0.686440
vt 0.211079 0.667443
vt 0.173848 0.785730
vt 0.197077 0.766076
vt 0.671341 0.629283
vt 0.005452 0.936398
vt 0.091231 0.787693
vt 0.749992 0.748070
vt 0.754050 0.622609
vt 0.923546 0.783382
vt 0.495522 0.687543
vt 0.683593 0.639961
vt 0.720873 0.745600
vt 0.894470 0.786402
vt 0.455664 0.054127
vt 0.671341 0.680366
vt 0.482455 0.648182
vt 0.389580 0.005339
vt 0.456429 0.668802
vt 0.568326 0.683625
vt 0.527140 0.584333
vt 0.918909 0.478863
vt 0.345211 0.069822
vt 0.568326 0.581231
vt 0.456429 0.771547
vt 0.960232 0.478863
vt 0.874607 0.511205
vt 0.705440 0.941200
vt 0.385046 0.663939
vt 0.407743 0.765959
vt 0.825674 0.508551
vt 0.481526 0.466643
vt 0.378324 0.697619
vt 0.671341 0.944788
vt 0.481526 0.392214
vt 0.415631 0.940974
vt 0.705440 0.874261
vt 0.692549 0.873037
vt 0.402802 0.942493
vt 0.435635 0.333178
vt 0.796118 0.944620
vt 0.415631 0.873528
vt 0.378324 0.929405
vt 0.410443 0.344838
vt 0.924029 0.642734
vt 0.378976 0.880537
vt 0.197077 0.815776
vt 0.875322 0.639961
vt 0.388299 0.872526
vt 0.768777 0.946736
vt 0.197789 0.828071
vt 0.562539 0.698220
vt 0.796118 0.872050
vt 0.760649 0.887854
vt 0.146949 0.508168
vt 0.248449 0.859007
vt 0.791533 0.871926
vt 0.567105 0.698616
vt 0.112287 0.509964
vt 0.581367 0.775685
vt 0.553418 0.772744
vt 0.567105 0.775785
vt 0.578983 0.761861
vt 0.091231 0.584177
vt 0.279873 0.664734
vt 0.654909 0.768450
vt 0.622236 0.672504
vt 0.675553 0.510634
vt 0.144811 0.667724
vt 0.654909 0.667824
vt 0.279873 0.765367
vt 0.708564 0.510634
vt 0.005328 0.853465
vt 0.672598 0.591497
vt 0.042967 0.940225
vt 0.642198 0.185540
vt 0.697996 0.529632
vt 0.671341 0.862359
vt 0.642198 0.118638
vt 0.754050 0.525386
vt 0.727587 0.861172
vt 0.923546 0.880658
vt 0.926533 0.508551
vt 0.920626 0.428990
vt 0.349708 0.119521
vt 0.835205 0.040448
vt 0.959762 0.445198
vt 0.834482 0.082873
vt 0.874607 0.544876
vt 0.677728 0.489623
vt 0.164283 0.675762
vt 0.018456 0.066807
vt 0.692851 0.468538
vt 0.008222 0.090655
vt 0.981294 0.786303
vt 0.708379 0.477533
vt 0.038004 0.857989
vt 0.963596 0.783382
vt 0.042967 0.861013
vt 0.568278 0.213708
vt 0.963799 0.789202
vt 0.702887 0.761273
vt 0.623555 0.014378
vt 0.510483 0.928945
vt 0.722530 0.758748
vt 0.491855 0.922146
vt 0.263740 0.876370
vt 0.727587 0.774573
vt 0.926533 0.595159
vt 0.256761 0.891441
vt 0.566298 0.150656
vt 0.005328 0.154066
vt 0.981294 0.849807
vt 0.580094 0.047885
vt 0.015222 0.257283
vt 0.937893 0.118223
vt 0.605668 0.005339
vt 0.510483 0.949016
vt 0.909883 0.159209
vt 0.890113 0.885905
vt 0.455664 0.153715
vt 0.892950 0.512660
vt 0.450327 0.194708
vt 0.885264 0.553279
vt 0.265251 0.949680
vt 0.437732 0.199246
vt 0.039697 0.459394
vt 0.278031 0.953680
vt 0.375049 0.166978
vt 0.098974 0.497490
vt 0.875920 0.005339
vt 0.005328 0.396251
vt 0.278031 0.881759
vt 0.184796 0.589891
vt 0.006498 0.375333
vt 0.184796 0.568924
vt 0.994672 0.944319
vt 0.044740 0.346870
vt 0.076592 0.923828
vt 0.994672 0.896583
vt 0.110409 0.367550
vt 0.176670 0.636784
vt 0.076592 0.854838
vt 0.116704 0.374571
vt 0.784245 0.333178
vt 0.179324 0.645846
vt 0.116704 0.487333
vt 0.890434 0.019771
vt 0.753555 0.441669
vt 0.484697 0.933850
vt 0.275706 0.869685
vt 0.176670 0.580667
vt 0.485362 0.970694
vt 0.975978 0.928456
vt 0.920729 0.190601
vt 0.482455 0.943210
vt 0.180020 0.571643
vt 0.993603 0.949717
vt 0.890434 0.076454
vt 0.803074 0.469035
vt 0.952939 0.785808
vt 0.889956 0.076932
vt 0.855826 0.597512
vt 0.952704 0.785174
vt 0.789180 0.341457
vt 0.183524 0.654533
vt 0.045662 0.517545
vt 0.803074 0.378082
vt 0.952939 0.876774
vt 0.020499 0.547557
vt 0.164283 0.519990
vt 0.262490 0.843389
vt 0.161328 0.005339
vt 0.222012 0.778924
vt 0.362862 0.535752
vt 0.881620 0.684034
vt 0.223167 0.781562
vt 0.363543 0.538551
vt 0.014499 0.842787
vt 0.262490 0.776754
vt 0.049911 0.824999
vt 0.188510 0.066151
vt 0.183524 0.634196
vt 0.063673 0.508168
vt 0.069397 0.853465
vt 0.849360 0.594837
vt 0.945942 0.783382
vt 0.826593 0.306512
vt 0.833327 0.558088
vt 0.461691 0.512661
vt 0.863492 0.322058
vt 0.934203 0.842284
vt 0.005328 0.583764
vt 0.806414 0.249951
vt 0.080574 0.511871
vt 0.053623 0.860585
vt 0.129335 0.312147
vt 0.080574 0.654962
vt 0.049911 0.709196
vt 0.188510 0.181923
vt 0.065667 0.692901
vt 0.023604 0.740303
vt 0.630709 0.948686
vt 0.038289 0.698518
vt 0.378324 0.465796
vt 0.658411 0.944993
vt 0.011596 0.641189
vt 0.399169 0.525507
vt 0.863492 0.258109
vt 0.068204 0.939521
vt 0.052974 0.336192
vt 0.977942 0.902577
vt 0.363543 0.534043
vt 0.011063 0.839877
vt 0.883455 0.684101
vt 0.005328 0.800636
vt 0.636520 0.885904
vt 0.905702 0.716907
vt 0.384676 0.398234
vt 0.658411 0.877131
vt 0.924029 0.702046
vt 0.046662 0.334877
vt 0.974235 0.907861
vt 0.937893 0.202066
vt 0.760233 0.798036
vt 0.715079 0.704903
vt 0.681922 0.762907
vt 0.523705 0.724016
vt 0.710626 0.740421
vt 0.728180 0.772896
vt 0.648885 0.763331
vt 0.660784 0.746948
vt 0.648759 0.713330
vt 0.592910 0.706601
vt 0.496032 0.691490
vt 0.643276 0.777124
s 1
usemtl RocksMaterial.010
f 1/1/1 2/3/1 3/5/1 4/9/1
f 5/14/2 1/2/3 4/10/4 6/15/5 7/18/5
f 8/22/6 5/13/7 7/19/8 9/23/8 10/26/8
f 11/31/9 8/21/9 10/27/9 12/32/9 13/35/9
f 14/39/10 11/30/10 13/36/10 15/40/10
f 16/44/11 14/38/11 15/41/12 17/45/12 18/48/12 19/51/12
f 20/55/13 16/43/13 19/52/13 21/56/13 22/59/13
f 23/63/14 20/54/14 22/60/14 24/64/14
f 25/68/15 23/62/15 24/65/15 26/69/15 27/72/15
f 2/4/16 25/67/16 27/73/16 3/6/16
f 4/11/17 3/7/17 28/76/18 29/79/17 30/82/17
f 10/28/19 9/24/19 31/86/19 32/89/19
f 27/74/20 26/70/20 33/92/20 34/95/20 35/98/20
f 3/8/21 27/75/21 35/99/22 36/101/22 28/77/22
f 30/83/23 29/80/23 37/104/23 38/107/23 39/110/23
f 37/105/24 29/81/24 28/78/24 36/102/24 40/113/24 41/116/24 42/119/24
f 43/122/25 6/16/25 4/12/25 30/84/25
f 6/17/26 43/123/26 44/125/26 45/128/26 46/131/26 31/87/26 9/25/26 7/20/26
f 45/129/27 47/134/27 48/137/27 49/140/27 50/143/27 51/146/27 52/149/27 46/132/27
f 39/111/28 44/126/28 43/124/28 30/85/28
f 53/152/29 38/108/29 37/106/29 42/120/29 54/155/29 55/158/29
f 45/130/30 44/127/30 39/112/30 38/109/30 53/153/30 47/135/30
f 52/150/31 56/161/31 57/164/31 32/90/31 31/88/31 46/133/31
f 52/151/32 51/147/32 58/167/32 59/170/32 56/162/32
f 26/71/33 24/66/33 22/61/33 21/57/33 60/173/33 33/93/33
f 21/58/34 19/53/34 18/49/34 61/176/34 62/179/34 63/182/34 60/174/34
f 64/185/35 58/168/35 51/148/35 50/144/35
f 57/165/36 65/188/36 66/191/36 12/33/36 10/29/36 32/91/36
f 57/166/37 56/163/37 59/171/37 67/194/37 65/189/37
f 55/159/38 48/138/38 47/136/38 53/154/38
f 68/197/39 69/200/39 70/203/39 71/206/39 72/209/39 67/195/39 59/172/39 58/169/39 64/186/39
f 73/212/40 68/198/40 64/187/40 50/145/40 49/141/40
f 74/215/41 62/180/41 61/177/41
f 62/181/42 74/216/42 75/218/42 70/204/42 69/201/42 63/183/42
f 66/192/43 72/210/43 71/207/43 76/221/43 17/46/43 15/42/43 13/37/43 12/34/43
f 65/190/44 67/196/44 72/211/44 66/193/44
f 71/208/45 70/205/45 75/219/45 76/222/45
f 76/223/46 75/220/46 74/217/46 61/178/46 18/50/46 17/47/46
f 40/114/47 34/96/47 33/94/47 60/175/47 63/184/47 69/202/47 68/199/47 73/213/47 77/224/47 41/117/47
f 40/115/48 36/103/48 35/100/48 34/97/48
f 54/156/49 77/225/49 73/214/49 49/142/49 48/139/49 55/160/49
f 54/157/50 42/121/50 41/118/50 77/226/50
f 78/227/51 83/232/51 82/231/51 79/228/51 86/235/51 85/234/51
f 84/233/52 83/232/52 78/227/52 20/55/52 23/63/52
f 2/4/53 1/2/54 79/228/53 82/231/53 81/230/53
f 2/4/55 81/230/55 80/229/55 25/68/55
f 8/22/56 11/31/57 88/237/57 87/236/57
f 1/2/58 5/14/59 79/228/60
f 78/227/61 85/234/61 89/238/61 14/39/61 16/44/61
f 89/238/62 88/237/62 11/31/62 14/39/62
f 5/14/63 8/22/64 87/236/65 86/235/65 79/228/65
f 20/55/66 78/227/66 16/44/66
f 80/229/67 81/230/67 82/231/67 83/232/67 84/233/67
f 85/234/68 86/235/68 87/236/68 88/237/68 89/238/68
f 25/68/69 80/229/69 84/233/69 23/63/69
