# Generated with liteGL.js by Javi Agenjo

v -5.1540 0.1450 -1.0570
v -4.5290 0.0560 1.3950
v -5.7620 2.2320 1.2860
v -5.1540 0.1450 -1.0570
v -5.7620 2.2320 1.2860
v -7.0350 2.0260 -1.7360
v -3.5100 0.1500 -2.4610
v -5.1540 0.1450 -1.0570
v -7.0350 2.0260 -1.7360
v -3.5100 0.1500 -2.4610
v -7.0350 2.0260 -1.7360
v -4.2250 1.3640 -2.9180
v -0.5860 0.0470 -3.1980
v -3.5100 0.1500 -2.4610
v -4.2250 1.3640 -2.9180
v -0.5860 0.0470 -3.1980
v -4.2250 1.3640 -2.9180
v -1.9270 2.2320 -3.2660
v -0.5860 0.0470 -3.1980
v -1.9270 2.2320 -3.2660
v -0.1560 2.2320 -3.5200
v 2.8760 0.0950 -2.3330
v -0.5860 0.0470 -3.1980
v -0.1560 2.2320 -3.5200
v 2.8760 0.0950 -2.3330
v -0.1560 2.2320 -3.5200
v 2.3870 2.2320 -2.7500
v 2.8760 0.0950 -2.3330
v 2.3870 2.2320 -2.7500
v 3.3210 1.3120 -2.3550
v 5.5360 0.0650 -0.5620
v 2.8760 0.0950 -2.3330
v 3.3210 1.3120 -2.3550
v 6.5840 0.0640 1.9750
v 5.5360 0.0650 -0.5620
v 6.2130 1.3310 -0.0730
v 6.5840 0.0640 1.9750
v 6.2130 1.3310 -0.0730
v 6.3420 1.9770 1.3060
v 5.3480 0.0550 3.9460
v 6.5840 0.0640 1.9750
v 6.3420 1.9770 1.3060
v 5.3480 0.0550 3.9460
v 6.3420 1.9770 1.3060
v 5.8720 1.3100 3.6650
v -1.5990 0.0250 3.6600
v 2.1950 0.0790 4.4780
v -0.5440 2.2320 4.4190
v -1.5990 0.0250 3.6600
v -0.5440 2.2320 4.4190
v -2.2470 2.2320 4.0180
v -4.5290 0.0560 1.3950
v -1.5990 0.0250 3.6600
v -2.2470 2.2320 4.0180
v -4.5290 0.0560 1.3950
v -2.2470 2.2320 4.0180
v -5.7620 2.2320 1.2860
v -1.9050 3.7430 -2.5100
v 1.0510 3.4590 -2.9680
v -0.1560 2.2320 -3.5200
v -1.9050 3.7430 -2.5100
v -0.1560 2.2320 -3.5200
v -1.9270 2.2320 -3.2660
v -1.9050 3.7430 -2.5100
v 0.2570 4.9440 -1.7600
v 1.0510 3.4590 -2.9680
v -0.5440 2.2320 4.4190
v 2.1950 0.0790 4.4780
v 5.3480 0.0550 3.9460
v -0.5440 2.2320 4.4190
v 5.3480 0.0550 3.9460
v 5.8720 1.3100 3.6650
v 1.0510 3.4590 -2.9680
v 3.6470 3.3170 -1.6190
v 6.2130 1.3310 -0.0730
v 1.0510 3.4590 -2.9680
v 6.2130 1.3310 -0.0730
v 5.5360 0.0650 -0.5620
v 1.0510 3.4590 -2.9680
v 5.5360 0.0650 -0.5620
v 3.3210 1.3120 -2.3550
v 1.0510 3.4590 -2.9680
v 3.3210 1.3120 -2.3550
v 2.3870 2.2320 -2.7500
v -2.7610 3.6470 2.6180
v -2.2470 2.2320 4.0180
v -0.5440 2.2320 4.4190
v -2.7610 3.6470 2.6180
v -0.5440 2.2320 4.4190
v 5.8720 1.3100 3.6650
v -2.7610 3.6470 2.6180
v 5.8720 1.3100 3.6650
v 6.3420 1.9770 1.3060
v -2.7610 3.6470 2.6180
v 6.3420 1.9770 1.3060
v 4.3960 3.2980 -0.3640
v -2.7610 3.6470 2.6180
v 4.3960 3.2980 -0.3640
v 1.4040 5.1000 0.0460
v -2.7610 3.6470 2.6180
v 1.4040 5.1000 0.0460
v -1.5320 4.9450 1.1530
v -0.1560 2.2320 -3.5200
v 1.0510 3.4590 -2.9680
v 2.3870 2.2320 -2.7500
v 1.4040 5.1000 0.0460
v 4.3960 3.2980 -0.3640
v 3.6470 3.3170 -1.6190
v 1.4040 5.1000 0.0460
v 3.6470 3.3170 -1.6190
v 1.0510 3.4590 -2.9680
v 1.4040 5.1000 0.0460
v 1.0510 3.4590 -2.9680
v 0.2570 4.9440 -1.7600
v 0.2570 4.9440 -1.7600
v -2.7670 4.8540 -1.6150
v -4.5880 4.7000 0.8830
v 0.2570 4.9440 -1.7600
v -4.5880 4.7000 0.8830
v -1.5320 4.9450 1.1530
v 0.2570 4.9440 -1.7600
v -1.5320 4.9450 1.1530
v 1.4040 5.1000 0.0460
v -2.7610 3.6470 2.6180
v -4.5880 4.7000 0.8830
v -6.4330 3.6920 -0.7070
v -2.7610 3.6470 2.6180
v -6.4330 3.6920 -0.7070
v -5.7620 2.2320 1.2860
v -2.7610 3.6470 2.6180
v -5.7620 2.2320 1.2860
v -2.2470 2.2320 4.0180
v -4.4860 4.2160 -2.0550
v -2.7670 4.8540 -1.6150
v 0.2570 4.9440 -1.7600
v -4.4860 4.2160 -2.0550
v 0.2570 4.9440 -1.7600
v -1.9050 3.7430 -2.5100
v -4.5880 4.7000 0.8830
v -2.7610 3.6470 2.6180
v -1.5320 4.9450 1.1530
v -2.7670 4.8540 -1.6150
v -4.4860 4.2160 -2.0550
v -6.4330 3.6920 -0.7070
v -2.7670 4.8540 -1.6150
v -6.4330 3.6920 -0.7070
v -4.5880 4.7000 0.8830
v -7.0350 2.0260 -1.7360
v -4.4860 4.2160 -2.0550
v -1.9050 3.7430 -2.5100
v -7.0350 2.0260 -1.7360
v -1.9050 3.7430 -2.5100
v -1.9270 2.2320 -3.2660
v -7.0350 2.0260 -1.7360
v -1.9270 2.2320 -3.2660
v -4.2250 1.3640 -2.9180
v -6.4330 3.6920 -0.7070
v -7.0350 2.0260 -1.7360
v -5.7620 2.2320 1.2860
v -4.4860 4.2160 -2.0550
v -7.0350 2.0260 -1.7360
v -6.4330 3.6920 -0.7070
v 6.3420 1.9770 1.3060
v 6.2130 1.3310 -0.0730
v 3.6470 3.3170 -1.6190
v 6.3420 1.9770 1.3060
v 3.6470 3.3170 -1.6190
v 4.3960 3.2980 -0.3640
v -1.5990 0.0250 3.6600
v -0.4610 -0.5240 2.1020
v 1.3740 -0.5060 2.4270
v -1.5990 0.0250 3.6600
v 1.3740 -0.5060 2.4270
v 2.1950 0.0790 4.4780
v 2.7820 -0.5100 2.0420
v 3.4420 -0.5090 1.1420
v 6.5840 0.0640 1.9750
v 2.7820 -0.5100 2.0420
v 6.5840 0.0640 1.9750
v 5.3480 0.0550 3.9460
v 1.9270 -0.4960 -1.0570
v 0.1450 -0.5060 -1.3630
v -0.5860 0.0470 -3.1980
v 1.9270 -0.4960 -1.0570
v -0.5860 0.0470 -3.1980
v 2.8760 0.0950 -2.3330
v -5.1540 0.1450 -1.0570
v -3.5100 0.1500 -2.4610
v -1.2430 -0.4740 -0.9320
v -5.1540 0.1450 -1.0570
v -1.2430 -0.4740 -0.9320
v -1.9540 -0.4750 -0.1690
v 2.1950 0.0790 4.4780
v 1.3740 -0.5060 2.4270
v 2.7820 -0.5100 2.0420
v 2.1950 0.0790 4.4780
v 2.7820 -0.5100 2.0420
v 5.3480 0.0550 3.9460
v 3.1920 -0.5050 -0.0720
v 1.9270 -0.4960 -1.0570
v 2.8760 0.0950 -2.3330
v 3.1920 -0.5050 -0.0720
v 2.8760 0.0950 -2.3330
v 5.5360 0.0650 -0.5620
v 6.5840 0.0640 1.9750
v 3.4420 -0.5090 1.1420
v 3.1920 -0.5050 -0.0720
v 6.5840 0.0640 1.9750
v 3.1920 -0.5050 -0.0720
v 5.5360 0.0650 -0.5620
v -3.5100 0.1500 -2.4610
v -0.5860 0.0470 -3.1980
v 0.1450 -0.5060 -1.3630
v -3.5100 0.1500 -2.4610
v 0.1450 -0.5060 -1.3630
v -1.2430 -0.4740 -0.9320
v -4.5290 0.0560 1.3950
v -5.1540 0.1450 -1.0570
v -1.9540 -0.4750 -0.1690
v -4.5290 0.0560 1.3950
v -1.9540 -0.4750 -0.1690
v -1.7830 -0.5090 0.9930
v -1.7830 -0.5090 0.9930
v -1.9540 -0.4750 -0.1690
v -1.2430 -0.4740 -0.9320
v -1.7830 -0.5090 0.9930
v -1.2430 -0.4740 -0.9320
v 0.1450 -0.5060 -1.3630
v -1.7830 -0.5090 0.9930
v 0.1450 -0.5060 -1.3630
v 1.9270 -0.4960 -1.0570
v -1.7830 -0.5090 0.9930
v 1.9270 -0.4960 -1.0570
v 3.1920 -0.5050 -0.0720
v -1.7830 -0.5090 0.9930
v 3.1920 -0.5050 -0.0720
v 3.4420 -0.5090 1.1420
v -1.7830 -0.5090 0.9930
v 3.4420 -0.5090 1.1420
v 2.7820 -0.5100 2.0420
v -1.7830 -0.5090 0.9930
v 2.7820 -0.5100 2.0420
v 1.3740 -0.5060 2.4270
v -1.7830 -0.5090 0.9930
v 1.3740 -0.5060 2.4270
v -0.4610 -0.5240 2.1020
v -1.5990 0.0250 3.6600
v -4.5290 0.0560 1.3950
v -1.7830 -0.5090 0.9930
v -1.5990 0.0250 3.6600
v -1.7830 -0.5090 0.9930
v -0.4610 -0.5240 2.1020

vn -15.7270 -10.9692 5.6866
vn -15.7270 -10.9692 5.6866
vn -15.7270 -10.9692 5.6866
vn -15.7270 -10.9692 5.6866
vn -15.7270 -10.9692 5.6866
vn -15.7270 -10.9692 5.6866
vn -9.2698 -12.4142 -12.6474
vn -9.2094 -12.3884 -12.7166
vn -9.2094 -12.3884 -12.7166
vn -9.2698 -12.4142 -12.6474
vn -9.2094 -12.3884 -12.7166
vn -9.2094 -12.3884 -12.7166
vn -3.2886 -4.2990 -19.2536
vn -3.1924 -4.1410 -19.3044
vn -3.5710 -4.4014 -19.1800
vn -3.2886 -4.2990 -19.2536
vn -3.5710 -4.4014 -19.1800
vn -3.6070 -4.3284 -19.1900
vn -3.2886 -4.2990 -19.2536
vn -3.6070 -4.3284 -19.1900
vn -3.5900 -4.3716 -19.1834
vn 5.2246 -3.1206 -19.0516
vn 5.1912 -2.9536 -19.0874
vn 5.2082 -3.2130 -19.0408
vn 5.2246 -3.1206 -19.0516
vn 5.2082 -3.2130 -19.0408
vn 5.2218 -3.2188 -19.0360
vn 5.2246 -3.1206 -19.0516
vn 5.2218 -3.2188 -19.0360
vn 5.2060 -3.2124 -19.0414
vn 10.7954 -4.2446 -16.2924
vn 10.7946 -4.2066 -16.3028
vn 10.7954 -4.2446 -16.2924
vn 19.0768 -2.9020 -5.2586
vn 19.0768 -2.9020 -5.2586
vn 19.0768 -2.9020 -5.2586
vn 19.0768 -2.9020 -5.2586
vn 19.0768 -2.9020 -5.2586
vn 19.0768 -2.9020 -5.2586
vn 18.5698 0.5694 7.4052
vn 18.5698 0.5694 7.4052
vn 18.5698 0.5694 7.4052
vn 18.5698 0.5694 7.4052
vn 18.5698 0.5694 7.4052
vn 18.5698 0.5694 7.4052
vn -4.1724 -4.5448 19.0246
vn -4.1724 -4.5448 19.0246
vn -4.1724 -4.5448 19.0246
vn -4.1724 -4.5448 19.0246
vn -4.1724 -4.5448 19.0246
vn -4.1724 -4.5448 19.0246
vn -11.7286 -5.8922 15.0904
vn -11.7286 -5.8922 15.0904
vn -11.7286 -5.8922 15.0904
vn -11.7286 -5.8922 15.0904
vn -11.7286 -5.8922 15.0904
vn -11.7286 -5.8922 15.0904
vn -2.0882 9.3272 -17.5682
vn -2.0882 9.3272 -17.5682
vn -2.0882 9.3272 -17.5682
vn -2.0882 9.3272 -17.5682
vn -2.0882 9.3272 -17.5682
vn -2.0882 9.3272 -17.5682
vn -1.2820 12.1780 -15.8132
vn -1.2820 12.1780 -15.8132
vn -1.2820 12.1780 -15.8132
vn 2.9880 3.8826 19.3906
vn 2.9880 3.8826 19.3906
vn 2.9880 3.8826 19.3906
vn 2.9880 3.8826 19.3906
vn 2.9880 3.8826 19.3906
vn 2.9880 3.8826 19.3906
vn 11.2336 1.9592 -16.4306
vn 11.1442 2.0180 -16.4844
vn 10.9930 2.0978 -16.5756
vn 11.2336 1.9592 -16.4306
vn 10.9930 2.0978 -16.5756
vn 11.1032 2.0382 -16.5096
vn 11.2336 1.9592 -16.4306
vn 11.1032 2.0382 -16.5096
vn 11.1874 1.9898 -16.4586
vn 11.2336 1.9592 -16.4306
vn 11.1874 1.9898 -16.4586
vn 11.2416 1.9668 -16.4242
vn 5.0004 17.4518 8.3922
vn 4.5510 17.6074 8.3228
vn 4.5738 17.5192 8.4946
vn 5.0004 17.4518 8.3922
vn 4.5738 17.5192 8.4946
vn 4.7422 17.5078 8.4254
vn 5.0004 17.4518 8.3922
vn 4.7422 17.5078 8.4254
vn 4.3972 17.5662 8.4910
vn 5.0004 17.4518 8.3922
vn 4.3972 17.5662 8.4910
vn 3.8992 17.5472 8.7686
vn 5.0004 17.4518 8.3922
vn 3.8992 17.5472 8.7686
vn 5.7004 17.0726 8.7196
vn 5.0004 17.4518 8.3922
vn 5.7004 17.0726 8.7196
vn 4.9580 17.4582 8.4042
vn 5.7328 2.8806 -18.9430
vn 5.7328 2.8806 -18.9430
vn 5.7328 2.8806 -18.9430
vn 7.7034 17.4316 -6.0662
vn 9.7332 14.5382 -9.6904
vn 8.3760 16.0996 -8.4052
vn 7.7034 17.4316 -6.0662
vn 8.3760 16.0996 -8.4052
vn 9.5458 15.2322 -8.7670
vn 7.7034 17.4316 -6.0662
vn 9.5458 15.2322 -8.7670
vn 8.3760 16.0996 -8.4052
vn -1.1210 19.9654 -0.3576
vn -1.1212 19.9654 -0.3512
vn -1.1218 19.9654 -0.3538
vn -1.1210 19.9654 -0.3576
vn -1.1218 19.9654 -0.3538
vn -1.1222 19.9654 -0.3478
vn -1.1210 19.9654 -0.3576
vn -1.1222 19.9654 -0.3478
vn -1.1216 19.9654 -0.3538
vn -11.5942 9.1804 13.4646
vn -11.5760 9.1826 13.4788
vn -11.5546 9.1812 13.4980
vn -11.5942 9.1804 13.4646
vn -11.5546 9.1812 13.4980
vn -11.5692 9.1848 13.4830
vn -11.5942 9.1804 13.4646
vn -11.5692 9.1848 13.4830
vn -11.5720 9.1834 13.4816
vn -0.8724 12.1178 -15.8870
vn -0.8724 12.1178 -15.8870
vn -0.8724 12.1178 -15.8870
vn -0.8724 12.1178 -15.8870
vn -0.8724 12.1178 -15.8870
vn -0.8724 12.1178 -15.8870
vn -2.3316 15.7942 12.0462
vn -2.3316 15.7942 12.0462
vn -2.3316 15.7942 12.0462
vn -6.6964 18.5570 -3.2852
vn -6.6964 18.5570 -3.2852
vn -6.6964 18.5570 -3.2852
vn -6.6964 18.5570 -3.2852
vn -6.6964 18.5570 -3.2852
vn -6.6964 18.5570 -3.2852
vn -4.7590 5.6514 -18.5852
vn -4.7844 5.6512 -18.5788
vn -4.7786 5.6440 -18.5826
vn -4.7590 5.6514 -18.5852
vn -4.7786 5.6440 -18.5826
vn -4.7962 5.6436 -18.5782
vn -4.7590 5.6514 -18.5852
vn -4.7962 5.6436 -18.5782
vn -4.7794 5.6494 -18.5806
vn -18.3908 1.9452 7.6154
vn -18.3908 1.9452 7.6154
vn -18.3908 1.9452 7.6154
vn -11.3102 11.4354 -11.8874
vn -11.3102 11.4354 -11.8874
vn -11.3102 11.4354 -11.8874
vn 15.0874 9.9066 -8.6156
vn 13.0968 12.6930 -8.2074
vn 14.1474 11.9430 -7.5644
vn 15.0874 9.9066 -8.6156
vn 14.1474 11.9430 -7.5644
vn 14.5766 12.7054 -5.1088
vn -0.9544 -19.0828 5.9108
vn -0.9544 -19.0828 5.9108
vn -0.9544 -19.0828 5.9108
vn -0.9544 -19.0828 5.9108
vn -0.9544 -19.0828 5.9108
vn -0.9544 -19.0828 5.9108
vn 3.0046 -19.6798 1.9180
vn 3.0046 -19.6798 1.9180
vn 3.0046 -19.6798 1.9180
vn 3.0046 -19.6798 1.9180
vn 3.0046 -19.6798 1.9180
vn 3.0046 -19.6798 1.9180
vn 1.7212 -18.7386 -6.7750
vn 1.7212 -18.7386 -6.7750
vn 1.8800 -18.6988 -6.8424
vn 1.7212 -18.7386 -6.7750
vn 1.8800 -18.6988 -6.8424
vn 1.7156 -18.7516 -6.7408
vn -2.9774 -19.5000 -3.2988
vn -2.8918 -19.5176 -3.2710
vn -2.9774 -19.5000 -3.2988
vn -2.9774 -19.5000 -3.2988
vn -2.9774 -19.5000 -3.2988
vn -2.9774 -19.5000 -3.2988
vn 0.8640 -19.3718 4.8980
vn 0.8640 -19.3718 4.8980
vn 0.8640 -19.3718 4.8980
vn 0.8640 -19.3718 4.8980
vn 0.8640 -19.3718 4.8980
vn 0.8640 -19.3718 4.8980
vn 3.6900 -18.8642 -5.5248
vn 3.6900 -18.8642 -5.5248
vn 3.7270 -18.8592 -5.5174
vn 3.6900 -18.8642 -5.5248
vn 3.7270 -18.8592 -5.5174
vn 3.6900 -18.8642 -5.5248
vn 4.1556 -19.5086 -1.4648
vn 4.1556 -19.5086 -1.4648
vn 4.1556 -19.5086 -1.4648
vn 4.1556 -19.5086 -1.4648
vn 4.1556 -19.5086 -1.4648
vn 4.1556 -19.5086 -1.4648
vn -1.8804 -19.2608 -5.0480
vn -1.8158 -19.3046 -4.9026
vn -1.9576 -19.2662 -4.9982
vn -1.8804 -19.2608 -5.0480
vn -1.9576 -19.2662 -4.9982
vn -1.9576 -19.2662 -4.9982
vn -3.9262 -19.6098 0.2004
vn -3.9262 -19.6098 0.2004
vn -3.9262 -19.6098 0.2004
vn -3.9262 -19.6098 0.2004
vn -3.9262 -19.6098 0.2004
vn -3.9262 -19.6098 0.2004
vn -0.0406 -19.9996 -0.1228
vn -0.0406 -19.9996 -0.1228
vn -0.0406 -19.9996 -0.1228
vn -0.0406 -19.9996 -0.1228
vn -0.0406 -19.9996 -0.1228
vn -0.0406 -19.9996 -0.1228
vn -0.0406 -19.9996 -0.1228
vn -0.0406 -19.9996 -0.1228
vn -0.0406 -19.9996 -0.1228
vn -0.0406 -19.9996 -0.1228
vn -0.0406 -19.9996 -0.1228
vn -0.0406 -19.9996 -0.1228
vn -0.0406 -19.9996 -0.1228
vn -0.0406 -19.9996 -0.1228
vn -0.0406 -19.9996 -0.1228
vn -0.0406 -19.9996 -0.1228
vn -0.0406 -19.9996 -0.1228
vn -0.0406 -19.9996 -0.1228
vn -0.0406 -19.9996 -0.1228
vn -0.0406 -19.9996 -0.1228
vn -0.0406 -19.9996 -0.1228
vn -0.0406 -19.9996 -0.1228
vn -0.0406 -19.9996 -0.1228
vn -0.0406 -19.9996 -0.1228
vn -3.4582 -19.2682 4.0956
vn -3.4582 -19.2682 4.0956
vn -3.4582 -19.2682 4.0956
vn -3.4582 -19.2682 4.0956
vn -3.4582 -19.2682 4.0956
vn -3.4582 -19.2682 4.0956

vt 0.5000 0.5000  0.0000
vt 0.5000 0.5000  0.0000
vt 0.5000 0.5000  0.0000
vt 0.5000 0.5000  0.0000
vt 0.5000 0.5000  0.0000
vt 0.5000 0.5000  0.0000
vt 0.5000 0.5000  0.0000
vt 0.5000 0.5000  0.0000
vt 0.5000 0.5000  0.0000
vt 0.5000 0.5000  0.0000
vt 0.5000 0.5000  0.0000
vt 0.5000 0.5000  0.0000
vt 0.5000 0.5000  0.0000
vt 0.5000 0.5000  0.0000
vt 0.5000 0.5000  0.0000
vt 0.5000 0.5000  0.0000
vt 0.5000 0.5000  0.0000
vt 0.5000 0.5000  0.0000
vt 0.5000 0.5000  0.0000
vt 0.5000 0.5000  0.0000
vt 0.5000 0.5000  0.0000
vt 0.5000 0.5000  0.0000
vt 0.5000 0.5000  0.0000
vt 0.5000 0.5000  0.0000
vt 0.5000 0.5000  0.0000
vt 0.5000 0.5000  0.0000
vt 0.5000 0.5000  0.0000
vt 0.5000 0.5000  0.0000
vt 0.5000 0.5000  0.0000
vt 0.5000 0.5000  0.0000
vt 0.5000 0.5000  0.0000
vt 0.5000 0.5000  0.0000
vt 0.5000 0.5000  0.0000
vt 0.5000 0.5000  0.0000
vt 0.5000 0.5000  0.0000
vt 0.5000 0.5000  0.0000
vt 0.5000 0.5000  0.0000
vt 0.5000 0.5000  0.0000
vt 0.5000 0.5000  0.0000
vt 0.5000 0.5000  0.0000
vt 0.5000 0.5000  0.0000
vt 0.5000 0.5000  0.0000
vt 0.5000 0.5000  0.0000
vt 0.5000 0.5000  0.0000
vt 0.5000 0.5000  0.0000
vt 0.5000 0.5000  0.0000
vt 0.5000 0.5000  0.0000
vt 0.5000 0.5000  0.0000
vt 0.5000 0.5000  0.0000
vt 0.5000 0.5000  0.0000
vt 0.5000 0.5000  0.0000
vt 0.5000 0.5000  0.0000
vt 0.5000 0.5000  0.0000
vt 0.5000 0.5000  0.0000
vt 0.5000 0.5000  0.0000
vt 0.5000 0.5000  0.0000
vt 0.5000 0.5000  0.0000
vt 0.5000 0.5000  0.0000
vt 0.5000 0.5000  0.0000
vt 0.5000 0.5000  0.0000
vt 0.5000 0.5000  0.0000
vt 0.5000 0.5000  0.0000
vt 0.5000 0.5000  0.0000
vt 0.5000 0.5000  0.0000
vt 0.5000 0.5000  0.0000
vt 0.5000 0.5000  0.0000
vt 0.5000 0.5000  0.0000
vt 0.5000 0.5000  0.0000
vt 0.5000 0.5000  0.0000
vt 0.5000 0.5000  0.0000
vt 0.5000 0.5000  0.0000
vt 0.5000 0.5000  0.0000
vt 0.5000 0.5000  0.0000
vt 0.5000 0.5000  0.0000
vt 0.5000 0.5000  0.0000
vt 0.5000 0.5000  0.0000
vt 0.5000 0.5000  0.0000
vt 0.5000 0.5000  0.0000
vt 0.5000 0.5000  0.0000
vt 0.5000 0.5000  0.0000
vt 0.5000 0.5000  0.0000
vt 0.5000 0.5000  0.0000
vt 0.5000 0.5000  0.0000
vt 0.5000 0.5000  0.0000
vt 0.5000 0.5000  0.0000
vt 0.5000 0.5000  0.0000
vt 0.5000 0.5000  0.0000
vt 0.5000 0.5000  0.0000
vt 0.5000 0.5000  0.0000
vt 0.5000 0.5000  0.0000
vt 0.5000 0.5000  0.0000
vt 0.5000 0.5000  0.0000
vt 0.5000 0.5000  0.0000
vt 0.5000 0.5000  0.0000
vt 0.5000 0.5000  0.0000
vt 0.5000 0.5000  0.0000
vt 0.5000 0.5000  0.0000
vt 0.5000 0.5000  0.0000
vt 0.5000 0.5000  0.0000
vt 0.5000 0.5000  0.0000
vt 0.5000 0.5000  0.0000
vt 0.5000 0.5000  0.0000
vt 0.5000 0.5000  0.0000
vt 0.5000 0.5000  0.0000
vt 0.5000 0.5000  0.0000
vt 0.5000 0.5000  0.0000
vt 0.5000 0.5000  0.0000
vt 0.5000 0.5000  0.0000
vt 0.5000 0.5000  0.0000
vt 0.5000 0.5000  0.0000
vt 0.5000 0.5000  0.0000
vt 0.5000 0.5000  0.0000
vt 0.5000 0.5000  0.0000
vt 0.5000 0.5000  0.0000
vt 0.5000 0.5000  0.0000
vt 0.5000 0.5000  0.0000
vt 0.5000 0.5000  0.0000
vt 0.5000 0.5000  0.0000
vt 0.5000 0.5000  0.0000
vt 0.5000 0.5000  0.0000
vt 0.5000 0.5000  0.0000
vt 0.5000 0.5000  0.0000
vt 0.5000 0.5000  0.0000
vt 0.5000 0.5000  0.0000
vt 0.5000 0.5000  0.0000
vt 0.5000 0.5000  0.0000
vt 0.5000 0.5000  0.0000
vt 0.5000 0.5000  0.0000
vt 0.5000 0.5000  0.0000
vt 0.5000 0.5000  0.0000
vt 0.5000 0.5000  0.0000
vt 0.5000 0.5000  0.0000
vt 0.5000 0.5000  0.0000
vt 0.5000 0.5000  0.0000
vt 0.5000 0.5000  0.0000
vt 0.5000 0.5000  0.0000
vt 0.5000 0.5000  0.0000
vt 0.5000 0.5000  0.0000
vt 0.5000 0.5000  0.0000
vt 0.5000 0.5000  0.0000
vt 0.5000 0.5000  0.0000
vt 0.5000 0.5000  0.0000
vt 0.5000 0.5000  0.0000
vt 0.5000 0.5000  0.0000
vt 0.5000 0.5000  0.0000
vt 0.5000 0.5000  0.0000
vt 0.5000 0.5000  0.0000
vt 0.5000 0.5000  0.0000
vt 0.5000 0.5000  0.0000
vt 0.5000 0.5000  0.0000
vt 0.5000 0.5000  0.0000
vt 0.5000 0.5000  0.0000
vt 0.5000 0.5000  0.0000
vt 0.5000 0.5000  0.0000
vt 0.5000 0.5000  0.0000
vt 0.5000 0.5000  0.0000
vt 0.5000 0.5000  0.0000
vt 0.5000 0.5000  0.0000
vt 0.5000 0.5000  0.0000
vt 0.5000 0.5000  0.0000
vt 0.5000 0.5000  0.0000
vt 0.5000 0.5000  0.0000
vt 0.5000 0.5000  0.0000
vt 0.5000 0.5000  0.0000
vt 0.5000 0.5000  0.0000
vt 0.5000 0.5000  0.0000
vt 0.5000 0.5000  0.0000
vt 0.5000 0.5000  0.0000
vt 0.5000 0.5000  0.0000
vt 0.5000 0.5000  0.0000
vt 0.5000 0.5000  0.0000
vt 0.5000 0.5000  0.0000
vt 0.5000 0.5000  0.0000
vt 0.5000 0.5000  0.0000
vt 0.5000 0.5000  0.0000
vt 0.5000 0.5000  0.0000
vt 0.5000 0.5000  0.0000
vt 0.5000 0.5000  0.0000
vt 0.5000 0.5000  0.0000
vt 0.5000 0.5000  0.0000
vt 0.5000 0.5000  0.0000
vt 0.5000 0.5000  0.0000
vt 0.5000 0.5000  0.0000
vt 0.5000 0.5000  0.0000
vt 0.5000 0.5000  0.0000
vt 0.5000 0.5000  0.0000
vt 0.5000 0.5000  0.0000
vt 0.5000 0.5000  0.0000
vt 0.5000 0.5000  0.0000
vt 0.5000 0.5000  0.0000
vt 0.5000 0.5000  0.0000
vt 0.5000 0.5000  0.0000
vt 0.5000 0.5000  0.0000
vt 0.5000 0.5000  0.0000
vt 0.5000 0.5000  0.0000
vt 0.5000 0.5000  0.0000
vt 0.5000 0.5000  0.0000
vt 0.5000 0.5000  0.0000
vt 0.5000 0.5000  0.0000
vt 0.5000 0.5000  0.0000
vt 0.5000 0.5000  0.0000
vt 0.5000 0.5000  0.0000
vt 0.5000 0.5000  0.0000
vt 0.5000 0.5000  0.0000
vt 0.5000 0.5000  0.0000
vt 0.5000 0.5000  0.0000
vt 0.5000 0.5000  0.0000
vt 0.5000 0.5000  0.0000
vt 0.5000 0.5000  0.0000
vt 0.5000 0.5000  0.0000
vt 0.5000 0.5000  0.0000
vt 0.5000 0.5000  0.0000
vt 0.5000 0.5000  0.0000
vt 0.5000 0.5000  0.0000
vt 0.5000 0.5000  0.0000
vt 0.5000 0.5000  0.0000
vt 0.5000 0.5000  0.0000
vt 0.5000 0.5000  0.0000
vt 0.5000 0.5000  0.0000
vt 0.5000 0.5000  0.0000
vt 0.5000 0.5000  0.0000
vt 0.5000 0.5000  0.0000
vt 0.5000 0.5000  0.0000
vt 0.5000 0.5000  0.0000
vt 0.5000 0.5000  0.0000
vt 0.5000 0.5000  0.0000
vt 0.5000 0.5000  0.0000
vt 0.5000 0.5000  0.0000
vt 0.5000 0.5000  0.0000
vt 0.5000 0.5000  0.0000
vt 0.5000 0.5000  0.0000
vt 0.5000 0.5000  0.0000
vt 0.5000 0.5000  0.0000
vt 0.5000 0.5000  0.0000
vt 0.5000 0.5000  0.0000
vt 0.5000 0.5000  0.0000
vt 0.5000 0.5000  0.0000
vt 0.5000 0.5000  0.0000
vt 0.5000 0.5000  0.0000
vt 0.5000 0.5000  0.0000
vt 0.5000 0.5000  0.0000
vt 0.5000 0.5000  0.0000
vt 0.5000 0.5000  0.0000
vt 0.5000 0.5000  0.0000
vt 0.5000 0.5000  0.0000
vt 0.5000 0.5000  0.0000
vt 0.5000 0.5000  0.0000
vt 0.5000 0.5000  0.0000
vt 0.5000 0.5000  0.0000
vt 0.5000 0.5000  0.0000
vt 0.5000 0.5000  0.0000
vt 0.5000 0.5000  0.0000
g mesh_0
usemtl mat_0
f 1/1/1 2/2/2 3/3/3
f 4/4/4 5/5/5 6/6/6
f 7/7/7 8/8/8 9/9/9
f 10/10/10 11/11/11 12/12/12
f 13/13/13 14/14/14 15/15/15
f 16/16/16 17/17/17 18/18/18
f 19/19/19 20/20/20 21/21/21
f 22/22/22 23/23/23 24/24/24
f 25/25/25 26/26/26 27/27/27
f 28/28/28 29/29/29 30/30/30
f 31/31/31 32/32/32 33/33/33
f 34/34/34 35/35/35 36/36/36
f 37/37/37 38/38/38 39/39/39
f 40/40/40 41/41/41 42/42/42
f 43/43/43 44/44/44 45/45/45
f 46/46/46 47/47/47 48/48/48
f 49/49/49 50/50/50 51/51/51
f 52/52/52 53/53/53 54/54/54
f 55/55/55 56/56/56 57/57/57
f 58/58/58 59/59/59 60/60/60
f 61/61/61 62/62/62 63/63/63
f 64/64/64 65/65/65 66/66/66
f 67/67/67 68/68/68 69/69/69
f 70/70/70 71/71/71 72/72/72
f 73/73/73 74/74/74 75/75/75
f 76/76/76 77/77/77 78/78/78
f 79/79/79 80/80/80 81/81/81
f 82/82/82 83/83/83 84/84/84
f 85/85/85 86/86/86 87/87/87
f 88/88/88 89/89/89 90/90/90
f 91/91/91 92/92/92 93/93/93
f 94/94/94 95/95/95 96/96/96
f 97/97/97 98/98/98 99/99/99
f 100/100/100 101/101/101 102/102/102
f 103/103/103 104/104/104 105/105/105
f 106/106/106 107/107/107 108/108/108
f 109/109/109 110/110/110 111/111/111
f 112/112/112 113/113/113 114/114/114
f 115/115/115 116/116/116 117/117/117
f 118/118/118 119/119/119 120/120/120
f 121/121/121 122/122/122 123/123/123
f 124/124/124 125/125/125 126/126/126
f 127/127/127 128/128/128 129/129/129
f 130/130/130 131/131/131 132/132/132
f 133/133/133 134/134/134 135/135/135
f 136/136/136 137/137/137 138/138/138
f 139/139/139 140/140/140 141/141/141
f 142/142/142 143/143/143 144/144/144
f 145/145/145 146/146/146 147/147/147
f 148/148/148 149/149/149 150/150/150
f 151/151/151 152/152/152 153/153/153
f 154/154/154 155/155/155 156/156/156
f 157/157/157 158/158/158 159/159/159
f 160/160/160 161/161/161 162/162/162
f 163/163/163 164/164/164 165/165/165
f 166/166/166 167/167/167 168/168/168
f 169/169/169 170/170/170 171/171/171
f 172/172/172 173/173/173 174/174/174
f 175/175/175 176/176/176 177/177/177
f 178/178/178 179/179/179 180/180/180
f 181/181/181 182/182/182 183/183/183
f 184/184/184 185/185/185 186/186/186
f 187/187/187 188/188/188 189/189/189
f 190/190/190 191/191/191 192/192/192
f 193/193/193 194/194/194 195/195/195
f 196/196/196 197/197/197 198/198/198
f 199/199/199 200/200/200 201/201/201
f 202/202/202 203/203/203 204/204/204
f 205/205/205 206/206/206 207/207/207
f 208/208/208 209/209/209 210/210/210
f 211/211/211 212/212/212 213/213/213
f 214/214/214 215/215/215 216/216/216
f 217/217/217 218/218/218 219/219/219
f 220/220/220 221/221/221 222/222/222
f 223/223/223 224/224/224 225/225/225
f 226/226/226 227/227/227 228/228/228
f 229/229/229 230/230/230 231/231/231
f 232/232/232 233/233/233 234/234/234
f 235/235/235 236/236/236 237/237/237
f 238/238/238 239/239/239 240/240/240
f 241/241/241 242/242/242 243/243/243
f 244/244/244 245/245/245 246/246/246
f 247/247/247 248/248/248 249/249/249
f 250/250/250 251/251/251 252/252/252