# Blender 3.1.0
# www.blender.org
mtllib rock2.mtl
o Rock2
v -0.290797 -0.009879 8.288812
v 0.546778 0.009278 8.947686
v 0.390518 0.484979 8.237496
v -0.127145 0.051908 9.323277
v 0.090536 -0.038718 8.961805
v 0.589425 0.220165 8.997103
v -0.554397 0.146905 8.068062
v 0.202474 0.333021 8.081719
v -0.421176 0.847083 8.795835
v -0.274195 0.334172 9.260435
v 0.061987 0.489794 9.312306
v 0.244360 0.736669 8.394382
v -0.735581 0.236223 8.847649
v 0.106637 0.046915 8.099161
v 0.459069 0.638610 8.738412
v -0.518448 0.006510 8.766451
v 0.270325 0.017851 9.345550
v 0.500352 0.016610 8.476149
v 0.693622 0.286305 8.329628
v 0.768160 0.064494 8.752192
v -0.309083 0.028666 8.013824
v -0.732916 0.044475 8.300709
v -0.647072 0.633090 8.391538
v 0.774027 0.379881 8.652945
v 0.877982 0.217947 8.640126
v 0.848363 0.297846 8.517278
v 0.055687 0.263002 9.534478
v -0.138288 0.278696 9.459449
v -0.079475 0.180213 9.512656
v 0.253350 0.358163 9.444663
v 0.248476 0.272736 9.521036
v 0.294460 0.242474 9.529533
v 0.330281 0.199771 9.503095
v 0.424840 0.250101 9.369091
v 0.348411 0.314303 9.440492
v -0.118237 0.867507 9.050927
v -0.900749 0.352133 8.388290
v -0.935222 0.169298 8.370708
v -0.947578 0.219508 8.542267
v -0.449967 0.488514 8.058340
v -0.478631 0.688791 8.205649
v 0.060718 0.850929 8.307694
v -0.298779 0.998822 8.564743
v -0.461329 0.866208 8.605502
v -0.115853 0.963649 8.708048
v -0.228372 0.550190 8.059320
v -0.162717 0.719773 8.143164
v -0.006562 0.687496 8.163566
v 0.009740 0.487506 8.070954
v -0.321321 0.918581 8.273651
v -0.271314 1.011116 8.382410
v -0.153374 0.976529 8.312640
v -0.222391 0.917543 8.245675
v -0.189858 0.939944 8.945557
v -0.198602 0.959256 8.855569
v -0.272133 0.928098 8.879477
v 0.063907 0.872692 9.083939
v 0.126631 0.768542 9.153152
v 0.183481 0.855774 9.010816
v 0.194579 0.866277 8.676986
v 0.293858 0.833375 8.783664
v 0.292705 0.786206 8.578471
vn -0.4491 -0.8884 -0.0947
vn -0.1226 -0.9922 -0.0244
vn 0.0502 -0.9962 -0.0711
vn -0.1267 -0.9775 0.1687
vn 0.7773 -0.4433 0.4464
vn 0.1038 -0.9943 -0.0257
vn -0.2034 0.4766 -0.8553
vn 0.0693 -0.9862 -0.1502
vn 0.0720 -0.9869 -0.1447
vn 0.0688 -0.9861 -0.1511
vn -0.7851 0.5384 0.3061
vn -0.0092 -0.6617 0.7497
vn -0.8346 -0.3131 0.4532
vn 0.1071 -0.9896 0.0957
vn -0.0943 -0.9776 0.1883
vn -0.1199 -0.8714 -0.4757
vn 0.5760 -0.6718 -0.4657
vn -0.0738 -0.9973 -0.0009
vn 0.6727 -0.2950 0.6785
vn -0.5299 -0.8040 0.2698
vn 0.2118 -0.9767 -0.0360
vn 0.0727 -0.9870 -0.1432
vn 0.6941 0.3838 0.6090
vn -0.6278 -0.4688 0.6214
vn 0.8382 0.5269 0.1406
vn -0.3243 0.2924 0.8996
vn -0.2152 0.7276 0.6514
vn 0.5851 0.4210 0.6931
vn -0.9724 0.1956 -0.1273
vn 0.5023 -0.3146 -0.8055
vn -0.6506 0.2237 -0.7258
vn 0.2247 0.9655 0.1316
vn 0.0430 0.0259 -0.9987
vn 0.6164 0.7175 -0.3245
vn -0.2619 0.4591 0.8489
vn 0.2771 0.5395 -0.7951
vn 0.1707 0.4059 -0.8978
vn 0.4350 0.4953 -0.7520
vn -0.1365 0.7941 -0.5923
vn -0.6926 0.6836 -0.2301
vn -0.3160 0.9209 0.2283
vn -0.3832 0.9019 0.1991
vn 0.4553 0.6665 0.5903
vn 0.6906 0.5585 0.4596
vn 0.6653 0.7268 -0.1708
vn 0.3908 0.9143 -0.1069
vn -0.6334 0.4101 0.6562
s 1
usemtl RocksMaterial.001
f 7//1 21//1 1//1
f 16//2 22//2 1//2
f 5//3 1//3 18//3
f 5//4 4//4 16//4
f 6//5 34//5 33//5 17//5 2//5
f 18//6 2//6 5//6
f 40//7 41//7 50//7 53//7 47//7 46//7
f 1//8 14//9 18//10
f 13//11 9//11 44//11 23//11 37//11 39//11
f 17//12 33//12 31//12 27//12 29//12 4//12
f 4//13 29//13 28//13 10//13
f 5//14 2//14 17//14
f 5//15 17//15 4//15
f 22//16 7//16 1//16
f 19//17 26//17 25//17 20//17 18//17
f 1//18 5//18 16//18
f 6//19 2//19 20//19
f 39//20 38//20 22//20 16//20 13//20
f 18//21 20//21 2//21
f 1//8 21//22 14//9
f 15//23 6//23 20//23 25//23 24//23
f 10//24 13//24 16//24 4//24
f 24//25 25//25 26//25
f 27//26 28//26 29//26
f 11//27 10//27 28//27 27//27 31//27 30//27
f 30//28 31//28 32//28 33//28 34//28 35//28
f 37//29 38//29 39//29
f 3//30 19//30 18//30 14//30 8//30
f 41//31 40//31 7//31 22//31 38//31 37//31 23//31
f 57//32 59//32 61//32 60//32 45//32 55//32 54//32 36//32
f 21//33 7//33 40//33 46//33 49//33 8//33 14//33
f 3//34 12//34 62//34 15//34 24//34 26//34 19//34
f 58//35 57//35 36//35 10//35 11//35
f 53//36 52//36 42//36 48//36 47//36
f 46//37 47//37 48//37 49//37
f 8//38 49//38 48//38 42//38 12//38 3//38
f 50//39 51//39 52//39 53//39
f 51//40 50//40 41//40 23//40 44//40 43//40
f 54//41 55//41 56//41
f 43//42 44//42 9//42 56//42 55//42 45//42
f 57//43 58//43 59//43
f 11//44 30//44 35//44 34//44 6//44 15//44 61//44 59//44 58//44
f 60//45 61//45 15//45 62//45
f 60//46 62//46 12//46 42//46 52//46 51//46 43//46 45//46
f 36//47 54//47 56//47 9//47 13//47 10//47
